<?xml version="1.0" encoding="utf-8"?>
<!-- Generator: Adobe Illustrator 19.1.0, SVG Export Plug-In . SVG Version: 6.00 Build 0)  -->
<svg version="1.1" id="Vrstva_1" xmlns="http://www.w3.org/2000/svg" xmlns:xlink="http://www.w3.org/1999/xlink" x="0px" y="0px"
	 viewBox="0 0 43 52" style="enable-background:new 0 0 43 52;" xml:space="preserve">
<style type="text/css">
	.st0{fill:#FFFFFF;}
</style>
<path class="st0" d="M39.1,0.3c-1.9,0-3.1,1.5-3.1,3.3v30.1c0,2.7-1,5.2-3,7.2V3.6c0-1.6-0.9-3-2.5-3.2c-1.6-0.2-3.1,0.7-3.5,2.3
	c-5.5,22.3-5.5,22.5-5.5,22.5c0,0,0-0.2-5.5-22.5c-0.4-1.6-1.8-2.5-3.4-2.3C11,0.6,10,2,10,3.6v37.3c-2-2-3-4.4-3-7.2V3.6
	c0-1.8-1.2-3.3-3.1-3.3S1,1.8,1,3.6v30.1c0,10.6,8.6,18,20.5,18c11.9,0,20.5-7.4,20.5-18V3.6C42,1.8,40.9,0.3,39.1,0.3z M21.5,45.9
	c-2,0-4.5-0.3-5.5-0.9v-19c0,0.1,0.2,1.2,3.8,15.2c0.2,0.7,0.7,1.4,1.8,1.4c1.1,0,1.5-0.6,1.7-1.4C24.4,36.8,27,26,27,26v18.9
	C26,45.5,23.5,45.9,21.5,45.9z"/>
</svg>
