<?xml version="1.0" encoding="utf-8"?>
<!-- Generator: Adobe Illustrator 19.2.0, SVG Export Plug-In . SVG Version: 6.00 Build 0)  -->
<svg version="1.1" id="Vrstva_1" xmlns="http://www.w3.org/2000/svg" xmlns:xlink="http://www.w3.org/1999/xlink" x="0px" y="0px"
	 viewBox="0 0 43 52" style="enable-background:new 0 0 43 52;" xml:space="preserve">
<style type="text/css">
	.st0{fill:#F9461C;}
</style>
<path class="st0" d="M40.1,0.3c-1.9,0-3.1,1.5-3.1,3.3v30.1c0,2.7-1,5.2-3,7.2V3.6c0-1.6-0.9-3-2.5-3.2S28.4,1.1,28,2.7
	c-5.5,22.3-5.5,22.5-5.5,22.5s0-0.2-5.5-22.5c-0.4-1.6-1.8-2.5-3.4-2.3S11,2,11,3.6v37.3c-2-2-3-4.4-3-7.2V3.6
	c0-1.8-1.2-3.3-3.1-3.3S2,1.8,2,3.6v30.1c0,10.6,8.6,18,20.5,18S43,44.3,43,33.7V3.6C43,1.8,41.9,0.3,40.1,0.3z M22.5,45.9
	c-2,0-4.5-0.3-5.5-0.9V26c0,0.1,0.2,1.2,3.8,15.2c0.2,0.7,0.7,1.4,1.8,1.4s1.5-0.6,1.7-1.4C25.4,36.8,28,26,28,26v18.9
	C27,45.5,24.5,45.9,22.5,45.9z"/>
</svg>
