<?xml version="1.0" encoding="utf-8"?>
<!-- Generator: Adobe Illustrator 18.1.1, SVG Export Plug-In . SVG Version: 6.00 Build 0)  -->
<!DOCTYPE svg PUBLIC "-//W3C//DTD SVG 1.1//EN" "http://www.w3.org/Graphics/SVG/1.1/DTD/svg11.dtd">
<svg version="1.1" id="Vrstva_1" xmlns="http://www.w3.org/2000/svg" xmlns:xlink="http://www.w3.org/1999/xlink" x="0px" y="0px"
	 viewBox="0 0 32.3 21" enable-background="new 0 0 32.3 21" xml:space="preserve">
<g>
	<path fill="#FFFFFF" d="M10.5,16.7H3.7V6h2.1v8.9h4.7V16.7z"/>
	<path fill="#FFFFFF" d="M12.1,6h6.4v1.9h-4.3v2.5h3.9v1.9h-3.9v2.6h4.4v1.9h-6.5V6z"/>
	<path fill="#FFFFFF" d="M20.6,6c0.2,0,0.5-0.1,0.7-0.1c0.3,0,0.6,0,0.8,0c0.3,0,0.6,0,0.8,0c0.3,0,0.5,0,0.7,0c1,0,1.8,0.1,2.4,0.4
		c0.7,0.3,1.2,0.6,1.6,1.1c0.4,0.5,0.7,1.1,0.9,1.7c0.2,0.7,0.3,1.4,0.3,2.2c0,0.7-0.1,1.4-0.3,2.1c-0.2,0.7-0.5,1.3-0.9,1.8
		c-0.4,0.5-1,0.9-1.7,1.3c-0.7,0.3-1.6,0.5-2.6,0.5c-0.2,0-0.4,0-0.7,0c-0.3,0-0.6,0-0.8,0s-0.6,0-0.8,0c-0.3,0-0.5,0-0.6-0.1V6z
		 M23.9,7.7c-0.2,0-0.5,0-0.7,0c-0.2,0-0.4,0-0.5,0V15c0,0,0.1,0,0.2,0c0.1,0,0.2,0,0.3,0c0.1,0,0.2,0,0.3,0c0.1,0,0.2,0,0.2,0
		c0.6,0,1.1-0.1,1.5-0.3c0.4-0.2,0.7-0.5,0.9-0.8c0.2-0.3,0.4-0.8,0.5-1.2c0.1-0.5,0.1-0.9,0.1-1.4c0-0.4,0-0.8-0.1-1.3
		s-0.2-0.8-0.5-1.1c-0.2-0.3-0.5-0.6-0.9-0.8S24.5,7.7,23.9,7.7z"/>
</g>
<g>
</g>
<g>
</g>
<g>
</g>
<g>
</g>
<g>
</g>
<g>
</g>
</svg>
