<?xml version="1.0" encoding="utf-8"?>
<!-- Generator: Adobe Illustrator 18.1.1, SVG Export Plug-In . SVG Version: 6.00 Build 0)  -->
<!DOCTYPE svg PUBLIC "-//W3C//DTD SVG 1.1//EN" "http://www.w3.org/Graphics/SVG/1.1/DTD/svg11.dtd">
<svg version="1.1" id="Vrstva_1" xmlns="http://www.w3.org/2000/svg" xmlns:xlink="http://www.w3.org/1999/xlink" x="0px" y="0px"
	 viewBox="0 0 32.3 21" enable-background="new 0 0 32.3 21" xml:space="preserve">
<g>
	<path fill="#FFFFFF" d="M2.4,11.3c0-1.8,0.4-3.2,1.2-4.1c0.8-1,1.9-1.5,3.4-1.5c0.8,0,1.4,0.1,2,0.4s1.1,0.6,1.4,1.1
		c0.4,0.5,0.7,1.1,0.8,1.8c0.2,0.7,0.3,1.5,0.3,2.3c0,1.8-0.4,3.2-1.2,4.1S8.4,17,7,17c-0.8,0-1.5-0.1-2-0.4c-0.6-0.3-1-0.6-1.4-1.1
		c-0.4-0.5-0.7-1.1-0.8-1.8C2.5,13,2.4,12.2,2.4,11.3z M4.6,11.3c0,0.5,0,1,0.1,1.5C4.9,13.3,5,13.7,5.2,14c0.2,0.3,0.4,0.6,0.7,0.8
		C6.2,15,6.6,15.1,7,15.1c0.7,0,1.3-0.3,1.7-0.9c0.4-0.6,0.6-1.5,0.6-2.8c0-0.5,0-1-0.1-1.5C9.1,9.4,9,9,8.8,8.7
		C8.6,8.4,8.4,8.1,8.1,7.9C7.8,7.7,7.4,7.6,7,7.6c-0.7,0-1.3,0.3-1.7,0.9C4.8,9.1,4.6,10.1,4.6,11.3z"/>
	<path fill="#FFFFFF" d="M20.8,16.3c-0.3,0.2-0.7,0.4-1.3,0.5S18.5,17,18,17c-0.6,0-1.3-0.1-1.8-0.3c-0.6-0.2-1.1-0.5-1.5-1
		s-0.8-1-1.1-1.7c-0.3-0.7-0.4-1.6-0.4-2.6c0-1.1,0.1-1.9,0.4-2.7s0.7-1.3,1.1-1.7c0.5-0.4,1-0.7,1.6-0.9c0.6-0.2,1.1-0.3,1.7-0.3
		c0.6,0,1.1,0,1.6,0.1C20,5.9,20.4,6,20.6,6.2l-0.4,1.8c-0.2-0.1-0.5-0.2-0.8-0.2c-0.3-0.1-0.7-0.1-1.2-0.1c-0.9,0-1.5,0.3-2.1,0.9
		c-0.5,0.6-0.8,1.5-0.8,2.8c0,0.6,0.1,1.1,0.2,1.5s0.3,0.8,0.6,1.2c0.3,0.3,0.6,0.6,0.9,0.8s0.8,0.3,1.3,0.3c0.5,0,0.9,0,1.2-0.1
		c0.3-0.1,0.6-0.2,0.8-0.4L20.8,16.3z"/>
	<path fill="#FFFFFF" d="M30.4,7.8h-3.1v8.9h-2.1V7.8H22V6h8.4V7.8z"/>
</g>
<g>
</g>
<g>
</g>
<g>
</g>
<g>
</g>
<g>
</g>
<g>
</g>
</svg>
