<?xml version="1.0" encoding="utf-8"?>
<!-- Generator: Adobe Illustrator 18.1.1, SVG Export Plug-In . SVG Version: 6.00 Build 0)  -->
<!DOCTYPE svg PUBLIC "-//W3C//DTD SVG 1.1//EN" "http://www.w3.org/Graphics/SVG/1.1/DTD/svg11.dtd">
<svg version="1.1" id="Vrstva_1" xmlns="http://www.w3.org/2000/svg" xmlns:xlink="http://www.w3.org/1999/xlink" x="0px" y="0px"
	 viewBox="0 0 32.3 21" enable-background="new 0 0 32.3 21" xml:space="preserve">
<g>
	<path fill="#FFFFFF" d="M14.2,5.6c0,0.9-0.2,1.9-0.5,2.9c-0.3,1-0.8,1.9-1.3,2.9c-0.5,0.9-1.1,1.8-1.8,2.7s-1.3,1.7-1.9,2.4
		l-1.5,1.1v0.1l2-0.4h5.4v3.1H2.8v-1.9c0.4-0.5,1-1,1.5-1.6c0.6-0.6,1.1-1.3,1.7-2c0.6-0.7,1.1-1.4,1.7-2.2c0.5-0.7,1-1.5,1.5-2.2
		c0.4-0.8,0.8-1.5,1-2.2c0.3-0.7,0.4-1.4,0.4-2c0-0.8-0.2-1.4-0.7-1.9C9.4,3.9,8.7,3.6,7.8,3.6C7.2,3.6,6.6,3.7,6,4S4.8,4.6,4.4,5
		L2.9,2.4c0.7-0.6,1.6-1.1,2.5-1.4s2-0.5,3.3-0.5c0.8,0,1.5,0.1,2.2,0.3c0.7,0.2,1.2,0.5,1.7,1c0.5,0.4,0.9,1,1.1,1.6
		S14.2,4.7,14.2,5.6z"/>
	<path fill="#FFFFFF" d="M17.3,15.6c0-0.7,0.1-1.2,0.3-1.7c0.2-0.5,0.4-1,0.7-1.4c0.3-0.4,0.7-0.8,1.1-1.1c0.4-0.3,0.9-0.6,1.4-0.9
		c-0.9-0.6-1.6-1.2-2.2-2c-0.5-0.8-0.8-1.7-0.8-2.8c0-0.7,0.1-1.4,0.4-2c0.3-0.6,0.7-1.2,1.2-1.6c0.5-0.5,1.1-0.8,1.9-1.1
		c0.7-0.3,1.5-0.4,2.5-0.4c0.8,0,1.6,0.1,2.3,0.3s1.3,0.5,1.8,0.9c0.5,0.4,0.9,0.9,1.1,1.5c0.3,0.6,0.4,1.2,0.4,1.9
		c0,1.1-0.2,2-0.7,2.8c-0.5,0.8-1.2,1.5-2.2,2.1c1.1,0.7,2,1.4,2.5,2.2c0.6,0.8,0.9,1.8,0.9,3c0,0.8-0.2,1.6-0.5,2.3
		s-0.7,1.3-1.3,1.7s-1.2,0.9-2,1.1c-0.8,0.3-1.6,0.4-2.6,0.4c-0.9,0-1.8-0.1-2.5-0.4c-0.8-0.3-1.4-0.6-1.9-1c-0.5-0.4-0.9-1-1.2-1.6
		C17.5,17.1,17.3,16.4,17.3,15.6z M26.3,15.2c0-0.4-0.1-0.8-0.3-1.2c-0.2-0.4-0.5-0.7-0.8-1c-0.3-0.3-0.7-0.6-1.1-0.8
		c-0.4-0.2-0.8-0.5-1.2-0.7c-0.9,0.5-1.5,1-1.8,1.6c-0.3,0.6-0.5,1.2-0.5,1.7c0,0.7,0.3,1.4,0.8,1.9c0.5,0.5,1.2,0.8,2.1,0.8
		c0.8,0,1.5-0.2,2-0.6C26.1,16.6,26.3,16,26.3,15.2z M21.3,5.6c0,0.4,0.1,0.8,0.3,1.2c0.2,0.3,0.4,0.6,0.7,0.9
		c0.3,0.3,0.6,0.5,1,0.7c0.4,0.2,0.7,0.4,1.1,0.6C25.4,8,26,7,26,5.9c0-0.8-0.2-1.4-0.7-1.8s-1-0.6-1.7-0.6c-0.8,0-1.4,0.2-1.8,0.6
		C21.4,4.5,21.3,5.1,21.3,5.6z"/>
</g>
<g>
</g>
<g>
</g>
<g>
</g>
<g>
</g>
<g>
</g>
<g>
</g>
</svg>
