<?xml version="1.0" encoding="utf-8"?>
<!-- Generator: Adobe Illustrator 18.1.1, SVG Export Plug-In . SVG Version: 6.00 Build 0)  -->
<!DOCTYPE svg PUBLIC "-//W3C//DTD SVG 1.1//EN" "http://www.w3.org/Graphics/SVG/1.1/DTD/svg11.dtd">
<svg version="1.1" id="Vrstva_1" xmlns="http://www.w3.org/2000/svg" xmlns:xlink="http://www.w3.org/1999/xlink" x="0px" y="0px"
	 viewBox="0 0 32.3 21" enable-background="new 0 0 32.3 21" xml:space="preserve">
<g>
	<path fill="#FFFFFF" d="M7.4,17.7c1.2,0,2-0.3,2.6-0.9c0.6-0.6,0.9-1.4,0.9-2.2c0-1.1-0.3-1.8-1-2.3c-0.6-0.5-1.6-0.8-3-0.8H5V9.5
		l3.4-4.6L10,3.6L7.8,3.9H3.1V0.8h10.7v2L9.8,8.1L8.6,8.8V9l1.2-0.2C10.4,8.8,11,9,11.6,9.2c0.6,0.2,1.1,0.6,1.5,1
		c0.4,0.5,0.8,1,1,1.7c0.3,0.7,0.4,1.4,0.4,2.3c0,1.1-0.2,2-0.5,2.8c-0.4,0.8-0.9,1.5-1.5,2s-1.4,0.9-2.2,1.2
		c-0.9,0.3-1.8,0.4-2.8,0.4c-0.8,0-1.7-0.1-2.5-0.2c-0.9-0.1-1.6-0.4-2.1-0.6l1-3c0.5,0.2,1,0.4,1.6,0.6C6,17.6,6.7,17.7,7.4,17.7z"
		/>
	<path fill="#FFFFFF" d="M16.9,10.5c0-3.4,0.6-6,1.8-7.6c1.2-1.7,2.9-2.5,5.1-2.5c2.3,0,4.1,0.8,5.2,2.5c1.1,1.6,1.6,4.2,1.6,7.7
		c0,3.4-0.6,6-1.8,7.7c-1.2,1.7-2.9,2.5-5.1,2.5c-2.3,0-4-0.9-5.1-2.6C17.5,16.3,16.9,13.8,16.9,10.5z M20.6,10.5
		c0,2.3,0.2,4,0.7,5.3c0.5,1.2,1.3,1.9,2.4,1.9c1.1,0,1.9-0.6,2.4-1.7c0.5-1.1,0.8-2.9,0.8-5.4c0-2.3-0.2-4-0.7-5.2
		c-0.5-1.2-1.3-1.8-2.5-1.8c-1.1,0-1.9,0.6-2.4,1.7C20.8,6.4,20.6,8.1,20.6,10.5z"/>
</g>
<g>
</g>
<g>
</g>
<g>
</g>
<g>
</g>
<g>
</g>
<g>
</g>
</svg>
