<?xml version="1.0" encoding="utf-8"?>
<!-- Generator: Adobe Illustrator 18.1.1, SVG Export Plug-In . SVG Version: 6.00 Build 0)  -->
<!DOCTYPE svg PUBLIC "-//W3C//DTD SVG 1.1//EN" "http://www.w3.org/Graphics/SVG/1.1/DTD/svg11.dtd">
<svg version="1.1" id="Vrstva_1" xmlns="http://www.w3.org/2000/svg" xmlns:xlink="http://www.w3.org/1999/xlink" x="0px" y="0px"
	 viewBox="0 0 32.3 21" enable-background="new 0 0 32.3 21" xml:space="preserve">
<g>
	<path fill="#FFFFFF" d="M8,14.3H4.7l-0.8,2.4H1.7L5.6,5.9h1.6l3.9,10.9H8.8L8,14.3z M5.2,12.7h2.3l-0.8-2.4L6.4,8.6H6.3L6,10.3
		L5.2,12.7z"/>
	<path fill="#FFFFFF" d="M18,6h2v7c0,0.7-0.1,1.3-0.3,1.8c-0.2,0.5-0.4,0.9-0.8,1.2c-0.3,0.3-0.7,0.6-1.2,0.7
		c-0.5,0.2-1,0.2-1.6,0.2c-2.7,0-4.1-1.2-4.1-3.7V6h2.1v6.8c0,0.4,0,0.8,0.1,1.1c0.1,0.3,0.2,0.5,0.4,0.7c0.2,0.2,0.4,0.3,0.6,0.4
		c0.2,0.1,0.5,0.1,0.9,0.1c0.6,0,1.1-0.2,1.4-0.5s0.4-0.9,0.4-1.7V6z"/>
	<path fill="#FFFFFF" d="M26.1,11.1h4v4.8c-0.4,0.4-0.9,0.6-1.5,0.8S27.3,17,26.7,17c-0.7,0-1.3-0.1-1.9-0.3c-0.6-0.2-1.1-0.6-1.5-1
		s-0.8-1-1-1.7c-0.2-0.7-0.4-1.5-0.4-2.5c0-1,0.1-1.9,0.4-2.6C22.6,8,23,7.5,23.5,7c0.5-0.4,1-0.8,1.6-1c0.6-0.2,1.2-0.3,1.8-0.3
		c0.6,0,1.2,0,1.6,0.1C29,6,29.4,6.1,29.7,6.2l-0.4,1.8c-0.3-0.1-0.5-0.2-0.9-0.2c-0.3-0.1-0.7-0.1-1.2-0.1c-0.4,0-0.8,0.1-1.2,0.2
		c-0.4,0.1-0.7,0.4-1,0.7c-0.3,0.3-0.5,0.7-0.6,1.2c-0.1,0.5-0.2,1-0.2,1.7c0,0.6,0.1,1.2,0.2,1.7c0.1,0.5,0.3,0.9,0.6,1.2
		c0.3,0.3,0.6,0.5,0.9,0.7s0.7,0.2,1.1,0.2c0.3,0,0.5,0,0.8-0.1c0.3-0.1,0.5-0.2,0.6-0.3v-2l-2.3-0.2V11.1z"/>
</g>
<g>
</g>
<g>
</g>
<g>
</g>
<g>
</g>
<g>
</g>
<g>
</g>
</svg>
