<?xml version="1.0" encoding="utf-8"?>
<!-- Generator: Adobe Illustrator 18.1.1, SVG Export Plug-In . SVG Version: 6.00 Build 0)  -->
<!DOCTYPE svg PUBLIC "-//W3C//DTD SVG 1.1//EN" "http://www.w3.org/Graphics/SVG/1.1/DTD/svg11.dtd">
<svg version="1.1" id="Layer_1" xmlns="http://www.w3.org/2000/svg" xmlns:xlink="http://www.w3.org/1999/xlink" x="0px" y="0px"
	 viewBox="255.1 378.4 85 85" enable-background="new 255.1 378.4 85 85" xml:space="preserve">
<path fill="#F1F1F1" d="M331,400.4c-2.4,1.1-5.1,1.8-7.8,2.2c2.8-1.8,5-4.3,5.9-7.6c-2.7,1.6-5.5,2.7-8.6,3.4
	c-2.4-2.7-6.1-4.3-10-4.3c-7.6,0-13.6,6.1-13.6,13.6c0,1.1,0.1,2.2,0.4,3.1c-11.3-0.5-21.3-5.9-28.1-14.3c-1.2,2-1.9,4.3-1.9,6.9
	c0,4.7,2.4,8.9,6.1,11.3c-2.3-0.1-4.3-0.7-6.2-1.8v0.1c0,6.6,4.7,12.1,10.9,13.4c-1.1,0.3-2.3,0.5-3.6,0.5c-0.9,0-1.8-0.1-2.6-0.3
	c1.8,5.4,6.8,9.3,12.7,9.5c-4.7,3.6-10.5,5.8-17,5.8c-1.1,0-2.2,0-3.2-0.1c6.1,3.9,13.2,6.1,20.9,6.1c25.1,0,38.9-20.8,38.9-38.9
	c0-0.5,0-1.2,0-1.8C326.9,405.5,329.2,403.1,331,400.4z"/>
</svg>
