<?xml version="1.0" encoding="utf-8"?>
<!-- Generator: Adobe Illustrator 18.1.1, SVG Export Plug-In . SVG Version: 6.00 Build 0)  -->
<!DOCTYPE svg PUBLIC "-//W3C//DTD SVG 1.1//EN" "http://www.w3.org/Graphics/SVG/1.1/DTD/svg11.dtd">
<svg version="1.1" id="Layer_1" xmlns="http://www.w3.org/2000/svg" xmlns:xlink="http://www.w3.org/1999/xlink" x="0px" y="0px"
	 viewBox="0 -36.7 595.3 595.3" enable-background="new 0 -36.7 595.3 595.3" xml:space="preserve">
<path fill="#FFFFFF" d="M474,152.1c-12.8,5.7-27.1,9.3-41.4,11.4c15-9.3,26.4-22.8,31.4-40c-14.3,8.6-29.3,14.3-45.7,17.8
	c-12.8-14.3-32.1-22.8-52.8-22.8c-40,0-72.1,32.1-72.1,72.1c0,5.7,0.7,11.4,2.1,16.4c-60-2.9-112.8-31.4-148.5-75.7
	c-6.4,10.7-10,22.8-10,36.4c0,25,12.8,47.1,32.1,60c-12.1-0.7-22.8-3.6-32.8-9.3v0.7c0,35,25,64.2,57.8,70.7
	c-5.7,1.4-12.1,2.9-19.3,2.9c-5,0-9.3-0.7-13.6-1.4c9.3,28.6,35.7,49.3,67.1,50c-25,19.3-55.7,30.7-89.9,30.7
	c-5.7,0-11.4,0-17.1-0.7c32.1,20.7,70,32.1,110.6,32.1c132.8,0,205.6-109.9,205.6-205.6c0-2.9,0-6.4,0-9.3
	C452.5,179.2,464.7,166.4,474,152.1z"/>
</svg>
