<?xml version="1.0" encoding="utf-8"?>
<!-- Generator: Adobe Illustrator 18.1.1, SVG Export Plug-In . SVG Version: 6.00 Build 0)  -->
<!DOCTYPE svg PUBLIC "-//W3C//DTD SVG 1.1//EN" "http://www.w3.org/Graphics/SVG/1.1/DTD/svg11.dtd">
<svg version="1.1" id="Layer_1" xmlns="http://www.w3.org/2000/svg" xmlns:xlink="http://www.w3.org/1999/xlink" x="0px" y="0px"
	 viewBox="255.1 378.4 85 85" enable-background="new 255.1 378.4 85 85" xml:space="preserve">
<g>
	<path fill="#F1F1F1" d="M330.7,415.1h-10.4v-10.4c0-0.8-0.7-1.4-1.4-1.4H316c-0.8,0-1.4,0.7-1.4,1.4v10.4h-10.4
		c-0.8,0-1.4,0.7-1.4,1.4v2.9c0,0.8,0.7,1.4,1.4,1.4h10.4v10.4c0,0.8,0.7,1.4,1.4,1.4h2.9c0.8,0,1.4-0.7,1.4-1.4v-10.4h10.4
		c0.8,0,1.4-0.7,1.4-1.4v-2.9C332.2,415.8,331.6,415.1,330.7,415.1z"/>
	<path fill="#F1F1F1" d="M295.8,424.3c-2.2-1.5-4.2-3.9-4.2-4.6c0-1.2,0.1-1.9,2.9-4.2c3.7-2.9,5.7-6.6,5.7-10.7
		c0-3.6-1.1-6.9-3-9.1h1.5c0.3,0,0.6-0.1,0.8-0.3l4.2-2.9c0.6-0.4,0.7-1,0.6-1.7c-0.1-0.6-0.7-1-1.4-1h-18.3c-1.9,0-4,0.4-6.1,1.1
		c-6.6,2.4-11.4,8-11.4,13.8c0,8.3,6.4,14.5,15,14.7c-0.1,0.7-0.3,1.2-0.3,1.9c0,1.2,0.3,2.5,1,3.6c-0.1,0-0.1,0-0.3,0
		c-8.2,0-15.5,4-18.3,10c-0.7,1.5-1.1,3.2-1.1,4.7c0,1.5,0.4,2.9,1.1,4.3c1.8,3.2,5.5,5.5,10.7,6.9c2.6,0.7,5.4,1,8.4,1
		c2.6,0,5.1-0.3,7.5-1c7.2-2.1,11.9-7.5,11.9-13.6C302.8,431.5,301,427.9,295.8,424.3z M272.7,437.8c0-4.3,5.4-8,11.6-8h0.1
		c1.4,0,2.6,0.3,3.9,0.6c0.4,0.3,0.8,0.6,1.2,0.8c2.9,1.9,4.8,3.3,5.3,5.4c0.1,0.6,0.1,1.1,0.1,1.5c0,5.4-4,8-11.9,8
		C277.4,446.1,272.7,442.5,272.7,437.8z M278.4,397.3c1-1.1,2.2-1.7,3.7-1.7h0.1c4,0.1,7.9,4.6,8.6,10.1c0.4,3-0.3,6-1.8,7.6
		c-1,1.1-2.2,1.7-3.7,1.7l0,0l0,0c-4-0.1-7.9-4.8-8.6-10.2C276.2,401.7,276.9,398.9,278.4,397.3z"/>
</g>
</svg>
