<?xml version="1.0" encoding="utf-8"?>
<!-- Generator: Adobe Illustrator 18.1.1, SVG Export Plug-In . SVG Version: 6.00 Build 0)  -->
<!DOCTYPE svg PUBLIC "-//W3C//DTD SVG 1.1//EN" "http://www.w3.org/Graphics/SVG/1.1/DTD/svg11.dtd">
<svg version="1.1" id="Layer_1" xmlns="http://www.w3.org/2000/svg" xmlns:xlink="http://www.w3.org/1999/xlink" x="0px" y="0px"
	 viewBox="255.1 378.4 85 85" enable-background="new 255.1 378.4 85 85" xml:space="preserve">
<g>
	<path fill="#F1F1F1" d="M314.7,447.5V426c0,0-0.6-5.8-6.2-5.8c-5.6,0-6.6,5.5-6.6,5.5v21.8h-11.5l0.2-35.5h11.1l-0.1,4.5
		c0,0,2.3-5.8,11-5.8c8.7,0,12.7,5,13.4,14.4c0,9.4,0,22.5,0,22.5H314.7z M276.4,406.9c-3.9,0-7.1-2.8-7.1-6.3
		c0-3.5,3.2-6.3,7.1-6.3s7.1,2.8,7.1,6.3C283.5,404.1,280.3,406.9,276.4,406.9z M283.4,447.6h-14.1v-35.5l14.1-0.1V447.6z"/>
</g>
</svg>
