<?xml version="1.0" encoding="utf-8"?>
<!-- Generator: Adobe Illustrator 18.1.1, SVG Export Plug-In . SVG Version: 6.00 Build 0)  -->
<!DOCTYPE svg PUBLIC "-//W3C//DTD SVG 1.1//EN" "http://www.w3.org/Graphics/SVG/1.1/DTD/svg11.dtd">
<svg version="1.1" id="Layer_1" xmlns="http://www.w3.org/2000/svg" xmlns:xlink="http://www.w3.org/1999/xlink" x="0px" y="0px"
	 viewBox="255.1 378.4 85 85" enable-background="new 255.1 378.4 85 85" xml:space="preserve">
<path fill="#F1F1F1" d="M318.1,387.6h-40.9c-7.1,0-12.9,5.8-12.9,12.9v13.6v27.3c0,7.1,5.8,12.9,12.9,12.9h40.9
	c7.1,0,12.9-5.8,12.9-12.9v-27.3v-13.6C331,393.4,325.2,387.6,318.1,387.6z M321.9,395.2h1.5v1.5v9.8H312v-11.3H321.9z M288.1,414.1
	c2.2-3,5.7-4.8,9.6-4.8c3.9,0,7.4,1.9,9.6,4.8c1.3,1.9,2.3,4.3,2.3,6.9c0,6.5-5.2,11.7-11.7,11.7c-6.5,0-11.7-5.2-11.7-11.7
	C285.9,418.4,286.7,416.1,288.1,414.1z M324.6,441.4c0,3.5-2.8,6.5-6.5,6.5h-40.9c-3.5,0-6.5-2.8-6.5-6.5v-27.3h10
	c-0.8,2.2-1.3,4.4-1.3,6.9c0,10.1,8.2,18.3,18.3,18.3c10.1,0,18.3-8.2,18.3-18.3c0-2.4-0.5-4.7-1.3-6.9h10L324.6,441.4L324.6,441.4z
	"/>
</svg>
