<?xml version="1.0" encoding="utf-8"?>
<!-- Generator: Adobe Illustrator 18.1.1, SVG Export Plug-In . SVG Version: 6.00 Build 0)  -->
<!DOCTYPE svg PUBLIC "-//W3C//DTD SVG 1.1//EN" "http://www.w3.org/Graphics/SVG/1.1/DTD/svg11.dtd">
<svg version="1.1" id="Layer_1" xmlns="http://www.w3.org/2000/svg" xmlns:xlink="http://www.w3.org/1999/xlink" x="0px" y="0px"
	 viewBox="255.1 378.4 85 85" enable-background="new 255.1 378.4 85 85" xml:space="preserve">
<g>
	<path fill="#F1F1F1" d="M319.8,419.2h-44.4c-7,0-12.8,5.7-12.8,12.8v10.3c0,7,5.7,12.8,12.8,12.8h44.4c7,0,12.8-5.7,12.8-12.8
		v-10.3C332.7,424.9,327,419.2,319.8,419.2z M284.7,427.2h-4.1v20.5h-4v-20.5h-4.1v-3.4h12.3C284.7,423.8,284.7,427.2,284.7,427.2z
		 M296.4,447.8h-3.6v-2c-0.7,0.7-1.3,1.3-2,1.6c-0.7,0.4-1.4,0.6-2,0.6c-0.9,0-1.4-0.3-1.9-0.9c-0.4-0.6-0.6-1.3-0.6-2.4v-14.5h3.6
		v13.6c0,0.4,0.1,0.7,0.3,0.9c0.1,0.1,0.4,0.3,0.7,0.3s0.6-0.1,1-0.4c0.4-0.3,0.7-0.6,1.1-1v-13.3h3.6v17.7H296.4z M309.3,444.1
		c0,1.3-0.3,2.3-0.9,2.9c-0.6,0.7-1.4,1-2.4,1c-0.7,0-1.3-0.1-1.9-0.4c-0.6-0.3-1-0.7-1.6-1.1v1.4H299v-24h3.6v7.7
		c0.4-0.6,1-1,1.6-1.3c0.6-0.3,1.1-0.4,1.6-0.4c1.1,0,2,0.4,2.6,1.1c0.6,0.7,0.9,1.9,0.9,3.3L309.3,444.1L309.3,444.1z M321.5,439.3
		h-6.7v3.3c0,1,0.1,1.6,0.3,2c0.3,0.4,0.6,0.6,1.1,0.6s1-0.1,1.3-0.4c0.3-0.3,0.3-1,0.3-2v-0.9h3.7v0.9c0,1.9-0.4,3.1-1.3,4.1
		c-0.9,0.9-2.1,1.4-4,1.4c-1.6,0-2.9-0.4-3.7-1.4c-0.9-1-1.4-2.3-1.4-4v-8c0-1.6,0.6-2.9,1.6-3.7c1-1,2.3-1.4,3.9-1.4
		c1.6,0,2.9,0.4,3.7,1.3s1.3,2.1,1.3,3.9V439.3z"/>
	<path fill="#F1F1F1" d="M316.4,432.6c-0.6,0-1,0.1-1.3,0.4c-0.3,0.3-0.4,0.9-0.4,1.6v1.9h3.1v-1.9c0-0.7-0.1-1.3-0.4-1.6
		C317.3,432.9,316.8,432.6,316.4,432.6z"/>
	<path fill="#F1F1F1" d="M304.1,432.6c-0.3,0-0.6,0-0.7,0.1c-0.3,0.1-0.4,0.3-0.7,0.6v11c0.3,0.3,0.6,0.6,0.9,0.6
		c0.3,0.1,0.6,0.1,0.9,0.1c0.4,0,0.7-0.1,1-0.4c0.1-0.3,0.3-0.7,0.3-1.3v-9.1c0-0.6-0.1-1-0.4-1.4
		C305,432.8,304.6,432.6,304.1,432.6z"/>
	<polygon fill="#F1F1F1" points="281.3,413.1 285.7,413.1 285.7,402.1 291,386.7 286.4,386.7 283.6,397.3 283.3,397.3 280.5,386.7 
		275.9,386.7 281.3,402.7 	"/>
	<path fill="#F1F1F1" d="M297,413.5c1.9,0,3.3-0.4,4.3-1.4c1-1,1.6-2.3,1.6-4V398c0-1.4-0.6-2.7-1.6-3.7s-2.4-1.4-4-1.4
		c-1.9,0-3.3,0.4-4.3,1.3c-1.1,0.9-1.6,2.1-1.6,3.6v10.1c0,1.7,0.6,3,1.6,4C293.9,413.1,295.3,413.5,297,413.5z M295.4,397.8
		c0-0.4,0.1-0.7,0.4-1c0.3-0.3,0.7-0.4,1.1-0.4c0.6,0,1,0.1,1.3,0.4c0.3,0.3,0.4,0.6,0.4,1v10.7c0,0.6-0.1,1-0.4,1.3
		s-0.7,0.4-1.3,0.4s-1-0.1-1.3-0.4c-0.3-0.3-0.4-0.7-0.4-1.3L295.4,397.8L295.4,397.8z"/>
	<path fill="#F1F1F1" d="M308.8,413.4c0.7,0,1.6-0.1,2.3-0.6c0.9-0.4,1.6-1,2.3-1.9v2.1h4v-19.5h-4v14.8c-0.4,0.4-0.7,0.7-1.3,1
		c-0.4,0.3-0.9,0.4-1.1,0.4c-0.4,0-0.7-0.1-0.9-0.3c-0.1-0.1-0.3-0.6-0.3-1v-15h-4v16.3c0,1.1,0.3,2,0.7,2.6
		C307.3,413.1,308,413.4,308.8,413.4z"/>
</g>
</svg>
