<?xml version="1.0" encoding="utf-8"?>
<!-- Generator: Adobe Illustrator 18.1.1, SVG Export Plug-In . SVG Version: 6.00 Build 0)  -->
<!DOCTYPE svg PUBLIC "-//W3C//DTD SVG 1.1//EN" "http://www.w3.org/Graphics/SVG/1.1/DTD/svg11.dtd">
<svg version="1.1" id="Vrstva_1" xmlns="http://www.w3.org/2000/svg" xmlns:xlink="http://www.w3.org/1999/xlink" x="0px" y="0px"
	 viewBox="0 0 32.3 21" enable-background="new 0 0 32.3 21" xml:space="preserve">
<g>
	<path fill="#FFFFFF" d="M14.3,5.6c0,0.9-0.2,1.9-0.5,2.9c-0.3,1-0.8,1.9-1.3,2.9c-0.5,0.9-1.1,1.8-1.8,2.7s-1.3,1.7-1.9,2.4
		l-1.5,1.1v0.1l2-0.4h5.4v3.1H3v-1.9c0.4-0.5,1-1,1.5-1.6c0.6-0.6,1.1-1.3,1.7-2c0.6-0.7,1.1-1.4,1.7-2.2c0.5-0.7,1-1.5,1.5-2.2
		c0.4-0.8,0.8-1.5,1-2.2c0.3-0.7,0.4-1.4,0.4-2c0-0.8-0.2-1.4-0.7-1.9C9.6,3.9,8.9,3.6,8,3.6C7.4,3.6,6.8,3.7,6.1,4S5,4.6,4.5,5
		L3.1,2.4c0.7-0.6,1.6-1.1,2.5-1.4s2-0.5,3.3-0.5c0.8,0,1.5,0.1,2.2,0.3c0.7,0.2,1.2,0.5,1.7,1c0.5,0.4,0.9,1,1.1,1.6
		S14.3,4.7,14.3,5.6z"/>
	<path fill="#FFFFFF" d="M30.9,14.9h-3.1v5.4h-3.4v-5.4H16v-2.1l8.9-12.2h3V12h3.1V14.9z M24.4,7.7l0.3-2.3h-0.1l-0.9,2l-2.9,3.8
		l-1.4,1.1l1.8-0.2h3.3V7.7z"/>
</g>
<g>
</g>
<g>
</g>
<g>
</g>
<g>
</g>
<g>
</g>
<g>
</g>
</svg>
