<?xml version="1.0" encoding="utf-8"?>
<!-- Generator: Adobe Illustrator 18.1.1, SVG Export Plug-In . SVG Version: 6.00 Build 0)  -->
<!DOCTYPE svg PUBLIC "-//W3C//DTD SVG 1.1//EN" "http://www.w3.org/Graphics/SVG/1.1/DTD/svg11.dtd">
<svg version="1.1" id="Vrstva_1" xmlns="http://www.w3.org/2000/svg" xmlns:xlink="http://www.w3.org/1999/xlink" x="0px" y="0px"
	 viewBox="0 0 32.3 21" enable-background="new 0 0 32.3 21" xml:space="preserve">
<g>
	<path fill="#FFFFFF" d="M14.1,5.6c0,0.9-0.2,1.9-0.5,2.9c-0.3,1-0.8,1.9-1.3,2.9c-0.5,0.9-1.1,1.8-1.8,2.7s-1.3,1.7-1.9,2.4
		l-1.5,1.1v0.1l2-0.4h5.4v3.1H2.8v-1.9c0.4-0.5,1-1,1.5-1.6c0.6-0.6,1.1-1.3,1.7-2c0.6-0.7,1.1-1.4,1.7-2.2c0.5-0.7,1-1.5,1.5-2.2
		c0.4-0.8,0.8-1.5,1-2.2c0.3-0.7,0.4-1.4,0.4-2c0-0.8-0.2-1.4-0.7-1.9C9.4,3.9,8.7,3.6,7.7,3.6C7.1,3.6,6.5,3.7,5.9,4S4.8,4.6,4.3,5
		L2.9,2.4c0.7-0.6,1.6-1.1,2.5-1.4s2-0.5,3.3-0.5c0.8,0,1.5,0.1,2.2,0.3c0.7,0.2,1.2,0.5,1.7,1c0.5,0.4,0.9,1,1.1,1.6
		S14.1,4.7,14.1,5.6z"/>
	<path fill="#FFFFFF" d="M16.9,6.9c0-0.9,0.1-1.8,0.4-2.6c0.3-0.8,0.7-1.5,1.3-2.1c0.5-0.6,1.2-1,2-1.3c0.8-0.3,1.7-0.5,2.7-0.5
		c2.1,0,3.8,0.6,5,1.9c1.2,1.3,1.8,3.1,1.8,5.5c0,2.2-0.3,4-0.8,5.6c-0.5,1.6-1.3,2.9-2.2,3.9s-2,1.9-3.2,2.4
		c-1.2,0.6-2.5,0.9-3.8,1l-0.8-2.9c1-0.1,1.9-0.4,2.7-0.8c0.8-0.4,1.5-0.8,2.1-1.4c0.6-0.5,1-1.2,1.4-1.9s0.6-1.4,0.8-2.2
		c-0.4,0.5-0.9,0.8-1.4,1c-0.5,0.2-1.2,0.3-2.1,0.3c-0.7,0-1.4-0.1-2.1-0.4c-0.7-0.2-1.3-0.6-1.9-1.1c-0.6-0.5-1-1.1-1.3-1.9
		C17.1,8.8,16.9,7.9,16.9,6.9z M20.4,6.7c0,1.1,0.3,1.9,0.9,2.4c0.6,0.5,1.3,0.8,2.2,0.8c0.8,0,1.4-0.1,1.9-0.4
		c0.5-0.2,0.9-0.5,1.1-0.9c0.1-0.4,0.1-0.8,0.1-1.1c0-0.5-0.1-1-0.2-1.5c-0.1-0.5-0.3-0.9-0.6-1.3s-0.6-0.7-1-0.9
		c-0.4-0.2-0.9-0.3-1.5-0.3c-0.9,0-1.6,0.3-2.1,0.9C20.7,4.9,20.4,5.7,20.4,6.7z"/>
</g>
<g>
</g>
<g>
</g>
<g>
</g>
<g>
</g>
<g>
</g>
<g>
</g>
</svg>
