<?xml version="1.0" encoding="utf-8"?>
<!-- Generator: Adobe Illustrator 18.1.1, SVG Export Plug-In . SVG Version: 6.00 Build 0)  -->
<!DOCTYPE svg PUBLIC "-//W3C//DTD SVG 1.1//EN" "http://www.w3.org/Graphics/SVG/1.1/DTD/svg11.dtd">
<svg version="1.1" id="Vrstva_1" xmlns="http://www.w3.org/2000/svg" xmlns:xlink="http://www.w3.org/1999/xlink" x="0px" y="0px"
	 viewBox="0 0 32.3 21" enable-background="new 0 0 32.3 21" xml:space="preserve">
<g>
	<path fill="#FFFFFF" d="M8.3,14.3H5l-0.8,2.4H2L5.9,5.9h1.6l3.9,10.9H9.1L8.3,14.3z M5.5,12.7h2.3L7,10.3L6.7,8.6H6.6l-0.3,1.7
		L5.5,12.7z"/>
	<path fill="#FFFFFF" d="M12.9,6.1c0.4-0.1,0.9-0.1,1.4-0.2c0.5,0,1-0.1,1.5-0.1c0.5,0,1.1,0,1.6,0.1c0.5,0.1,1,0.3,1.5,0.5
		c0.4,0.3,0.8,0.6,1.1,1.1c0.3,0.5,0.4,1.1,0.4,1.8c0,0.7-0.1,1.3-0.4,1.7c-0.2,0.5-0.5,0.8-0.9,1.1s-0.8,0.5-1.3,0.6
		c-0.5,0.1-1,0.2-1.5,0.2c-0.1,0-0.1,0-0.2,0c-0.1,0-0.2,0-0.4,0s-0.2,0-0.4,0c-0.1,0-0.2,0-0.3,0v3.7h-2.1V6.1z M16,7.6
		c-0.2,0-0.4,0-0.6,0c-0.2,0-0.3,0-0.4,0.1v3.5c0,0,0.1,0,0.2,0c0.1,0,0.2,0,0.3,0c0.1,0,0.2,0,0.3,0c0.1,0,0.2,0,0.2,0
		c0.3,0,0.6,0,0.8-0.1c0.3-0.1,0.5-0.1,0.7-0.3c0.2-0.1,0.4-0.3,0.5-0.6c0.1-0.2,0.2-0.6,0.2-1c0-0.3-0.1-0.6-0.2-0.8
		S17.7,8.1,17.5,8S17,7.7,16.8,7.7C16.5,7.6,16.3,7.6,16,7.6z"/>
	<path fill="#FFFFFF" d="M22,6.1C22.3,6,22.5,6,22.8,6c0.3,0,0.5-0.1,0.8-0.1c0.3,0,0.5,0,0.8,0c0.3,0,0.5,0,0.7,0
		c0.5,0,1,0,1.5,0.1s0.9,0.3,1.3,0.5c0.4,0.2,0.7,0.5,0.9,0.9c0.2,0.4,0.3,0.9,0.3,1.5c0,0.9-0.2,1.6-0.6,2.2
		c-0.4,0.6-1,0.9-1.6,1.2l0.8,0.5l2.5,4.1h-2.4l-2.4-4.2l-1.1-0.2v4.4H22V6.1z M25.3,7.7c-0.2,0-0.4,0-0.6,0c-0.2,0-0.4,0-0.5,0.1
		v3.1H25c0.6,0,1.1-0.1,1.4-0.4c0.3-0.3,0.5-0.7,0.5-1.3c0-0.5-0.1-0.8-0.4-1.1C26.3,7.8,25.8,7.7,25.3,7.7z"/>
</g>
<g>
</g>
<g>
</g>
<g>
</g>
<g>
</g>
<g>
</g>
<g>
</g>
</svg>
