<?xml version="1.0" encoding="utf-8"?>
<!-- Generator: Adobe Illustrator 18.1.1, SVG Export Plug-In . SVG Version: 6.00 Build 0)  -->
<!DOCTYPE svg PUBLIC "-//W3C//DTD SVG 1.1//EN" "http://www.w3.org/Graphics/SVG/1.1/DTD/svg11.dtd">
<svg version="1.1" id="Vrstva_1" xmlns="http://www.w3.org/2000/svg" xmlns:xlink="http://www.w3.org/1999/xlink" x="0px" y="0px"
	 viewBox="0 0 32.3 21" enable-background="new 0 0 32.3 21" xml:space="preserve">
<g>
	<path fill="#FFFFFF" d="M8.2,13.8c0-0.3-0.1-0.6-0.4-0.8c-0.2-0.2-0.5-0.4-0.9-0.6c-0.4-0.2-0.8-0.3-1.2-0.5
		c-0.4-0.2-0.8-0.4-1.2-0.7s-0.7-0.6-0.9-1C3.4,9.9,3.3,9.4,3.3,8.8c0-0.5,0.1-1,0.3-1.4c0.2-0.4,0.4-0.7,0.7-1
		C4.6,6.2,5,6.1,5.5,5.9c0.4-0.1,0.9-0.2,1.5-0.2c0.6,0,1.2,0.1,1.8,0.2s1,0.3,1.4,0.5L9.4,8.1C9.2,8,8.9,7.9,8.4,7.8
		C8,7.6,7.5,7.6,6.9,7.6c-0.5,0-0.9,0.1-1.1,0.3C5.6,8.1,5.4,8.3,5.4,8.7c0,0.3,0.1,0.6,0.4,0.8C6,9.6,6.3,9.8,6.7,10
		c0.4,0.2,0.8,0.4,1.2,0.5c0.4,0.2,0.8,0.4,1.2,0.7c0.4,0.3,0.7,0.6,0.9,1c0.2,0.4,0.4,0.9,0.4,1.4c0,0.6-0.1,1.1-0.3,1.5
		c-0.2,0.4-0.5,0.8-0.8,1c-0.3,0.3-0.8,0.5-1.2,0.6C7.5,16.9,7,17,6.4,17c-0.8,0-1.4-0.1-2-0.2s-1-0.3-1.3-0.4l0.7-1.8
		c0.1,0.1,0.3,0.1,0.4,0.2c0.2,0.1,0.4,0.1,0.6,0.2C5,15,5.3,15,5.5,15.1s0.5,0.1,0.8,0.1c0.6,0,1.1-0.1,1.4-0.3
		C8.1,14.6,8.2,14.3,8.2,13.8z"/>
	<path fill="#FFFFFF" d="M12.2,6.1C12.4,6,12.7,6,13,6c0.3,0,0.5-0.1,0.8-0.1c0.3,0,0.5,0,0.8,0c0.3,0,0.5,0,0.7,0
		c0.5,0,1,0,1.5,0.1c0.5,0.1,0.9,0.3,1.3,0.5C18.5,6.6,18.8,7,19,7.4c0.2,0.4,0.3,0.9,0.3,1.5c0,0.9-0.2,1.6-0.6,2.2
		c-0.4,0.6-1,0.9-1.6,1.2l0.8,0.5l2.5,4.1h-2.4l-2.4-4.2l-1.1-0.2v4.4h-2.1V6.1z M15.4,7.7c-0.2,0-0.4,0-0.6,0c-0.2,0-0.4,0-0.5,0.1
		v3.1h0.9c0.6,0,1.1-0.1,1.4-0.4c0.3-0.3,0.5-0.7,0.5-1.3c0-0.5-0.1-0.8-0.4-1.1C16.4,7.8,16,7.7,15.4,7.7z"/>
	<path fill="#FFFFFF" d="M21.9,6.1c0.4-0.1,0.9-0.1,1.4-0.2s1-0.1,1.5-0.1c0.5,0,1.1,0,1.6,0.1c0.5,0.1,1,0.3,1.5,0.5
		s0.8,0.6,1.1,1.1c0.3,0.5,0.4,1.1,0.4,1.8c0,0.7-0.1,1.3-0.4,1.7c-0.2,0.5-0.5,0.8-0.9,1.1c-0.4,0.3-0.8,0.5-1.3,0.6
		c-0.5,0.1-1,0.2-1.5,0.2c-0.1,0-0.1,0-0.2,0s-0.2,0-0.4,0c-0.1,0-0.2,0-0.4,0c-0.1,0-0.2,0-0.3,0v3.7h-2.1V6.1z M25,7.6
		c-0.2,0-0.4,0-0.6,0c-0.2,0-0.3,0-0.4,0.1v3.5c0,0,0.1,0,0.2,0s0.2,0,0.3,0c0.1,0,0.2,0,0.3,0c0.1,0,0.2,0,0.2,0
		c0.3,0,0.6,0,0.8-0.1c0.3-0.1,0.5-0.1,0.7-0.3c0.2-0.1,0.4-0.3,0.5-0.6c0.1-0.2,0.2-0.6,0.2-1c0-0.3-0.1-0.6-0.2-0.8
		S26.7,8.1,26.5,8s-0.4-0.2-0.7-0.3C25.6,7.6,25.3,7.6,25,7.6z"/>
</g>
<g>
</g>
<g>
</g>
<g>
</g>
<g>
</g>
<g>
</g>
<g>
</g>
</svg>
