<?xml version="1.0" encoding="utf-8"?>
<!-- Generator: Adobe Illustrator 19.2.0, SVG Export Plug-In . SVG Version: 6.00 Build 0)  -->
<svg version="1.1" id="Vrstva_1" xmlns="http://www.w3.org/2000/svg" xmlns:xlink="http://www.w3.org/1999/xlink" x="0px" y="0px"
	 viewBox="0 0 32 32" enable-background="new 0 0 32 32" xml:space="preserve">
<g id="search-ico" transform="translate(576 192)">
	<path fill="#002776" d="M-544.9-165.1l-7.3-7.3c-1.1,1.7-2.5,3.1-4.2,4.2l7.3,7.3c1.2,1.2,3.1,1.2,4.2,0
		C-543.7-162-543.7-163.9-544.9-165.1z"/>
	<path fill="#002776" d="M-552-180c0-6.6-5.4-12-12-12s-12,5.4-12,12s5.4,12,12,12S-552-173.4-552-180z M-564-171c-5,0-9-4-9-9
		s4-9,9-9s9,4,9,9S-559-171-564-171z"/>
	<path fill="#002776" d="M-571-180h2c0-2.8,2.2-5,5-5v-2C-567.9-187-571-183.9-571-180z"/>
</g>
</svg>
