<?xml version="1.0" encoding="utf-8"?>
<!-- Generator: Adobe Illustrator 18.1.1, SVG Export Plug-In . SVG Version: 6.00 Build 0)  -->
<!DOCTYPE svg PUBLIC "-//W3C//DTD SVG 1.1//EN" "http://www.w3.org/Graphics/SVG/1.1/DTD/svg11.dtd">
<svg version="1.1" id="Vrstva_1" xmlns="http://www.w3.org/2000/svg" xmlns:xlink="http://www.w3.org/1999/xlink" x="0px" y="0px"
	 viewBox="0 0 32.3 21" enable-background="new 0 0 32.3 21" xml:space="preserve">
<g>
	<path fill="#FFFFFF" d="M7.3,6.1C7.5,6,7.7,6,8,6c0.3,0,0.5-0.1,0.8-0.1c0.3,0,0.5,0,0.8,0c0.3,0,0.5,0,0.7,0c0.5,0,1,0,1.5,0.1
		c0.5,0.1,0.9,0.3,1.3,0.5C13.5,6.6,13.8,7,14,7.4s0.3,0.9,0.3,1.5c0,0.9-0.2,1.6-0.6,2.2c-0.4,0.6-1,0.9-1.6,1.2l0.8,0.5l2.5,4.1
		h-2.4l-2.4-4.2l-1.1-0.2v4.4H7.3V6.1z M11,5.4H9.5l-2-1.4V3.3h1.6L10,4l0.3,0.5L10.6,4l0.9-0.7H13V4L11,5.4z M10.5,7.7
		c-0.2,0-0.4,0-0.6,0c-0.2,0-0.4,0-0.5,0.1v3.1h0.9c0.6,0,1.1-0.1,1.4-0.4c0.3-0.3,0.5-0.7,0.5-1.3c0-0.5-0.1-0.8-0.4-1.1
		C11.5,7.8,11,7.7,10.5,7.7z"/>
	<path fill="#FFFFFF" d="M18.3,3.3h2.4v0.5l-2.5,1.4h-1.6L18.3,3.3z M17.1,6h2.1v10.8h-2.1V6z"/>
	<path fill="#FFFFFF" d="M23,6h2.1v7.9c0,0.4,0,0.8-0.1,1.2c-0.1,0.4-0.2,0.7-0.5,1c-0.2,0.3-0.5,0.5-0.8,0.7
		c-0.3,0.2-0.7,0.3-1.2,0.3c-0.3,0-0.6,0-1-0.1c-0.3-0.1-0.7-0.1-0.9-0.3l0.5-1.7C21.3,15,21.6,15,22,15c0.4,0,0.7-0.2,0.8-0.5
		s0.2-0.7,0.2-1.3V6z"/>
</g>
<g>
</g>
<g>
</g>
<g>
</g>
<g>
</g>
<g>
</g>
<g>
</g>
</svg>
