<?xml version="1.0" encoding="utf-8"?>
<!-- Generator: Adobe Illustrator 18.1.1, SVG Export Plug-In . SVG Version: 6.00 Build 0)  -->
<!DOCTYPE svg PUBLIC "-//W3C//DTD SVG 1.1//EN" "http://www.w3.org/Graphics/SVG/1.1/DTD/svg11.dtd">
<svg version="1.1" id="Vrstva_1" xmlns="http://www.w3.org/2000/svg" xmlns:xlink="http://www.w3.org/1999/xlink" x="0px" y="0px"
	 viewBox="0 0 32.3 21" enable-background="new 0 0 32.3 21" xml:space="preserve">
<g>
	<path fill="#FFFFFF" d="M2.3,6c0.2,0,0.5-0.1,0.7-0.1c0.3,0,0.6,0,0.8,0c0.3,0,0.6,0,0.8,0c0.3,0,0.5,0,0.7,0c1,0,1.8,0.1,2.4,0.4
		c0.7,0.3,1.2,0.6,1.6,1.1s0.7,1.1,0.9,1.7c0.2,0.7,0.3,1.4,0.3,2.2c0,0.7-0.1,1.4-0.3,2.1c-0.2,0.7-0.5,1.3-0.9,1.8s-1,0.9-1.7,1.3
		c-0.7,0.3-1.6,0.5-2.6,0.5c-0.2,0-0.4,0-0.7,0c-0.3,0-0.6,0-0.8,0s-0.6,0-0.8,0c-0.3,0-0.5,0-0.6-0.1V6z M5.6,7.7
		c-0.2,0-0.5,0-0.7,0c-0.2,0-0.4,0-0.5,0V15c0,0,0.1,0,0.2,0c0.1,0,0.2,0,0.3,0c0.1,0,0.2,0,0.3,0c0.1,0,0.2,0,0.2,0
		c0.6,0,1.1-0.1,1.5-0.3s0.7-0.5,0.9-0.8c0.2-0.3,0.4-0.8,0.5-1.2c0.1-0.5,0.1-0.9,0.1-1.4c0-0.4,0-0.8-0.1-1.3
		C8.3,9.6,8.2,9.2,8,8.8C7.7,8.5,7.4,8.2,7.1,8C6.7,7.8,6.2,7.7,5.6,7.7z"/>
	<path fill="#FFFFFF" d="M18.5,6h2v7c0,0.7-0.1,1.3-0.3,1.8s-0.4,0.9-0.8,1.2c-0.3,0.3-0.7,0.6-1.2,0.7c-0.5,0.2-1,0.2-1.6,0.2
		c-2.7,0-4.1-1.2-4.1-3.7V6h2.1v6.8c0,0.4,0,0.8,0.1,1.1c0.1,0.3,0.2,0.5,0.4,0.7c0.2,0.2,0.4,0.3,0.6,0.4c0.2,0.1,0.5,0.1,0.9,0.1
		c0.6,0,1.1-0.2,1.4-0.5s0.4-0.9,0.4-1.7V6z"/>
	<path fill="#FFFFFF" d="M30.1,8.5c0,0.3,0,0.5-0.1,0.8C30,9.5,29.9,9.8,29.7,10c-0.2,0.2-0.4,0.4-0.6,0.6c-0.2,0.2-0.5,0.3-0.9,0.4
		v0.1c0.3,0.1,0.6,0.1,0.9,0.3c0.3,0.1,0.5,0.3,0.7,0.5c0.2,0.2,0.4,0.5,0.5,0.8c0.1,0.3,0.2,0.7,0.2,1.1c0,0.6-0.1,1-0.4,1.4
		c-0.2,0.4-0.6,0.7-0.9,1c-0.4,0.3-0.8,0.4-1.3,0.6c-0.5,0.1-1,0.2-1.6,0.2c-0.2,0-0.4,0-0.7,0c-0.3,0-0.6,0-0.9,0
		c-0.3,0-0.6,0-1-0.1c-0.3,0-0.6-0.1-0.9-0.1V6c0.2,0,0.4-0.1,0.7-0.1c0.3,0,0.5-0.1,0.8-0.1c0.3,0,0.6,0,0.9,0s0.6,0,0.9,0
		c0.5,0,1,0,1.5,0.1c0.5,0.1,0.9,0.2,1.3,0.4c0.4,0.2,0.7,0.5,0.9,0.8C30,7.5,30.1,7.9,30.1,8.5z M25.6,10.5c0.1,0,0.3,0,0.5,0
		c0.2,0,0.3,0,0.5,0c0.4-0.1,0.7-0.3,1-0.5s0.4-0.6,0.4-1c0-0.3-0.1-0.5-0.2-0.7c-0.1-0.2-0.2-0.3-0.4-0.4c-0.2-0.1-0.4-0.2-0.6-0.2
		c-0.2,0-0.4-0.1-0.7-0.1c-0.3,0-0.5,0-0.7,0c-0.2,0-0.4,0-0.5,0v2.8H25.6z M26.3,15.1c0.3,0,0.5,0,0.7-0.1c0.2-0.1,0.4-0.2,0.6-0.3
		s0.3-0.3,0.4-0.5c0.1-0.2,0.2-0.4,0.2-0.7c0-0.3-0.1-0.6-0.2-0.8c-0.1-0.2-0.3-0.3-0.5-0.4c-0.2-0.1-0.4-0.2-0.7-0.2
		c-0.3,0-0.5,0-0.8,0h-1.1V15c0.1,0,0.1,0,0.2,0c0.1,0,0.2,0,0.4,0c0.1,0,0.3,0,0.4,0C26.1,15.1,26.2,15.1,26.3,15.1z"/>
</g>
<g>
</g>
<g>
</g>
<g>
</g>
<g>
</g>
<g>
</g>
<g>
</g>
</svg>
