<?xml version="1.0" encoding="utf-8"?>
<!-- Generator: Adobe Illustrator 18.1.1, SVG Export Plug-In . SVG Version: 6.00 Build 0)  -->
<!DOCTYPE svg PUBLIC "-//W3C//DTD SVG 1.1//EN" "http://www.w3.org/Graphics/SVG/1.1/DTD/svg11.dtd">
<svg version="1.1" id="Vrstva_1" xmlns="http://www.w3.org/2000/svg" xmlns:xlink="http://www.w3.org/1999/xlink" x="0px" y="0px"
	 viewBox="0 0 32.3 21" enable-background="new 0 0 32.3 21" xml:space="preserve">
<g>
	<path fill="#FFFFFF" d="M10.2,11.1L10.4,9h-0.1l-0.7,1.7l-2.3,4H6.7l-2.4-4L3.6,9H3.5l0.3,2.1v5.6h-2V6h1.9l2.9,4.9l0.5,1.2h0.1
		l0.5-1.3L10.4,6h1.9v10.8h-2.1V11.1z"/>
	<path fill="#FFFFFF" d="M20,14.3h-3.3l-0.8,2.4h-2.1l3.9-10.9h1.6l3.9,10.9h-2.2L20,14.3z M17.2,12.7h2.3l-0.8-2.4l-0.3-1.7h-0.1
		L18,10.3L17.2,12.7z"/>
	<path fill="#FFFFFF" d="M26,12.7L22.4,6h2.5l2,4l0.2,1.1h0.1l0.2-1.2l1.9-4h2.3l-3.5,6.8v4H26V12.7z"/>
</g>
<g>
</g>
<g>
</g>
<g>
</g>
<g>
</g>
<g>
</g>
<g>
</g>
</svg>
