<?xml version="1.0" encoding="utf-8"?>
<!-- Generator: Adobe Illustrator 18.1.1, SVG Export Plug-In . SVG Version: 6.00 Build 0)  -->
<!DOCTYPE svg PUBLIC "-//W3C//DTD SVG 1.1//EN" "http://www.w3.org/Graphics/SVG/1.1/DTD/svg11.dtd">
<svg version="1.1" id="Vrstva_1" xmlns="http://www.w3.org/2000/svg" xmlns:xlink="http://www.w3.org/1999/xlink" x="0px" y="0px"
	 viewBox="0 0 32.3 21" enable-background="new 0 0 32.3 21" xml:space="preserve">
<g>
	<path fill="#FFFFFF" d="M3.6,17.3h3.9v-11l0.4-1.9L6.6,6L4.1,7.7L2.6,5.6l6.4-5.1h2v16.8h3.8v3.1H3.6V17.3z"/>
	<path fill="#FFFFFF" d="M21.8,17.5c1.2,0,2.2-0.3,2.8-0.9c0.7-0.6,1-1.4,1-2.5c0-1.1-0.4-1.9-1.1-2.5c-0.8-0.5-1.9-0.8-3.3-0.8
		L19,11V0.8h9.6v3.4h-6.5V8l1.1-0.1c0.9,0,1.7,0.2,2.5,0.5c0.7,0.3,1.4,0.7,1.9,1.2s0.9,1.2,1.2,1.9s0.4,1.6,0.4,2.5
		c0,1.1-0.2,2.1-0.6,2.9c-0.4,0.8-0.9,1.5-1.6,2.1s-1.4,1-2.3,1.3c-0.9,0.3-1.9,0.4-2.9,0.4c-0.8,0-1.6-0.1-2.4-0.2
		c-0.8-0.1-1.4-0.3-1.9-0.6l1-3c0.4,0.2,0.9,0.3,1.4,0.4C20.5,17.5,21.1,17.5,21.8,17.5z"/>
</g>
<g>
</g>
<g>
</g>
<g>
</g>
<g>
</g>
<g>
</g>
<g>
</g>
</svg>
