<?xml version="1.0" encoding="utf-8"?>
<!-- Generator: Adobe Illustrator 18.1.1, SVG Export Plug-In . SVG Version: 6.00 Build 0)  -->
<!DOCTYPE svg PUBLIC "-//W3C//DTD SVG 1.1//EN" "http://www.w3.org/Graphics/SVG/1.1/DTD/svg11.dtd">
<svg version="1.1" id="Vrstva_1" xmlns="http://www.w3.org/2000/svg" xmlns:xlink="http://www.w3.org/1999/xlink" x="0px" y="0px"
	 viewBox="0 0 32.3 21" enable-background="new 0 0 32.3 21" xml:space="preserve">
<g>
	<path fill="#FFFFFF" d="M9.7,16.3c-0.3,0.2-0.7,0.4-1.3,0.5C8,16.9,7.4,17,6.9,17c-0.6,0-1.3-0.1-1.8-0.3c-0.6-0.2-1.1-0.5-1.5-1
		s-0.8-1-1.1-1.7c-0.3-0.7-0.4-1.6-0.4-2.6c0-1.1,0.1-1.9,0.4-2.7S3.2,7.4,3.7,7c0.5-0.4,1-0.7,1.6-0.9c0.6-0.2,1.1-0.3,1.7-0.3
		c0.6,0,1.1,0,1.6,0.1C8.9,5.9,9.3,6,9.6,6.2L9.1,7.9C8.9,7.8,8.6,7.7,8.3,7.7C8,7.6,7.6,7.6,7.1,7.6c-0.9,0-1.5,0.3-2.1,0.9
		c-0.5,0.6-0.8,1.5-0.8,2.8c0,0.6,0.1,1.1,0.2,1.5S4.8,13.7,5,14s0.6,0.6,0.9,0.8s0.8,0.3,1.3,0.3c0.5,0,0.9,0,1.2-0.1
		c0.3-0.1,0.6-0.2,0.8-0.4L9.7,16.3z M7.4,5.4H6L4,3.9V3.3h1.6L6.5,4l0.3,0.5L7.1,4l0.9-0.7h1.5V4L7.4,5.4z"/>
	<path fill="#FFFFFF" d="M15.4,12.3l0.3,1.8h0.1l0.3-1.8L18.1,6h2.2l-4,10.9h-1.5L10.8,6h2.4L15.4,12.3z"/>
	<path fill="#FFFFFF" d="M24.4,11.1l-0.8-1.7h-0.1l0.2,1.7v5.6h-2V5.9h1.5l4.1,5.7l0.8,1.6h0.1L28,11.6V6h2v10.9h-1.5L24.4,11.1z"/>
</g>
<g>
</g>
<g>
</g>
<g>
</g>
<g>
</g>
<g>
</g>
<g>
</g>
</svg>
