<?xml version="1.0" encoding="utf-8"?>
<!-- Generator: Adobe Illustrator 19.2.0, SVG Export Plug-In . SVG Version: 6.00 Build 0)  -->
<svg version="1.1" id="Vrstva_1" xmlns="http://www.w3.org/2000/svg" xmlns:xlink="http://www.w3.org/1999/xlink" x="0px" y="0px"
	 viewBox="0 0 100 100" enable-background="new 0 0 100 100" xml:space="preserve">
<g>
	<path fill="#FFFFFF" d="M79.3,39.7l-3.5,20.1h15.5c1.5,4.8,1.1,12,0,16.8H72.8l-3.3,18.7c-5.7,0.6-12.7-0.7-17-3l2.8-15.7H35.5
		l-3.3,18.8c-5.5,0.6-12.9-0.9-17-3.1l2.8-15.7H2c-0.9-5.2-0.9-12.2,0-16.8h18.8l3.5-20.1H8.5C7,35.3,7,28.3,8.5,22.9h18.8l3.3-18.5
		c5.7-0.6,12.9,0.9,17,3.3l-2.8,15.1h19.8L68,4.5c5.7-0.6,12.9,0.9,17,3.3l-2.8,15.1h15.3c1.5,4.8,1.5,12.2,0,16.8H79.3z M38.4,59.9
		h19.8l3.5-20.1H41.9L38.4,59.9z"/>
</g>
<g>
</g>
<g>
</g>
<g>
</g>
<g>
</g>
<g>
</g>
<g>
</g>
<g>
</g>
<g>
</g>
<g>
</g>
<g>
</g>
<g>
</g>
<g>
</g>
<g>
</g>
<g>
</g>
<g>
</g>
</svg>
