<?xml version="1.0" encoding="UTF-8"?>
<!DOCTYPE svg PUBLIC "-//W3C//DTD SVG 1.1//EN" "http://www.w3.org/Graphics/SVG/1.1/DTD/svg11.dtd">
<!-- Creator: CorelDRAW X6 -->
<svg xmlns="http://www.w3.org/2000/svg" xml:space="preserve" width="99.9982mm" height="99.9982mm" version="1.1" style="shape-rendering:geometricPrecision; text-rendering:geometricPrecision; image-rendering:optimizeQuality; fill-rule:evenodd; clip-rule:evenodd"
viewBox="0 0 10000 10000"
 xmlns:xlink="http://www.w3.org/1999/xlink">
 <defs>
  <style type="text/css">
   <![CDATA[
    .fil1 {fill:#2B2A29;fill-rule:nonzero}
    .fil0 {fill:#E31E24;fill-rule:nonzero}
    .fil2 {fill:#FEFEFE;fill-rule:nonzero}
   ]]>
  </style>
 </defs>
 <g id="Vrstva_x0020_1">
  <metadata id="CorelCorpID_0Corel-Layer"/>
  <g id="_310105328">
   <path class="fil0" d="M1379 6724c0,41 38,92 119,92 66,0 100,-32 100,-65 0,-46 -63,-53 -122,-61 -73,-11 -238,-27 -238,-184 0,-115 90,-195 247,-195 155,0 247,76 256,196l-150 0c-4,-35 -15,-78 -101,-78 -58,0 -93,19 -93,49 0,48 81,55 142,66 121,20 225,53 225,187 0,137 -114,198 -267,198 -171,0 -268,-77 -274,-205l156 0z"/>
   <path class="fil0" d="M2367 6784c-60,94 -149,146 -267,146 -175,0 -315,-140 -315,-310 0,-173 140,-309 315,-309 117,0 208,50 268,144l-124 69c-34,-48 -82,-78 -143,-78 -95,0 -174,80 -174,173 0,93 79,173 174,173 61,0 109,-27 143,-76l123 68z"/>
  </g>
  <path class="fil0" d="M2413 6316l148 0 0 600 -148 0 0 -600zm0 -203l0 0 148 0 0 148 -148 0 0 -148z"/>
  <g id="_310103928">
   <path class="fil0" d="M3086 6552c-29,-69 -81,-106 -158,-106 -72,0 -134,45 -161,106l319 0zm135 231l0 0c-62,94 -153,146 -282,146 -189,0 -326,-133 -326,-310 0,-173 140,-309 315,-309 204,0 333,170 312,358l-477 0c25,77 86,123 176,123 75,0 120,-23 158,-76l123 68z"/>
   <path class="fil0" d="M3294 6316l147 0 0 48c40,-34 96,-54 162,-54 180,0 247,114 247,291l0 315 -147 0 0 -277c0,-127 -19,-193 -130,-193 -82,0 -131,52 -131,137l0 332 -147 0 0 -600z"/>
   <path class="fil0" d="M3958 6453l-72 0 0 -136 72 0 0 -157 148 0 0 157 135 0 0 136 -135 0 0 217c0,79 16,106 153,107l9 143c-181,6 -310,-35 -310,-250l0 -217z"/>
  </g>
  <path class="fil0" d="M4317 6316l148 0 0 600 -148 0 0 -600zm0 -203l0 0 148 0 0 148 -148 0 0 -148z"/>
  <g id="_310103232">
   <path class="fil0" d="M4584 6518l-60 0 0 -136 60 0 0 -26c0,-208 124,-256 316,-250l-11 143c-139,-1 -157,26 -157,107l0 26 135 0 0 136 -135 0 0 398 -148 0 0 -398z"/>
  </g>
  <path class="fil0" d="M4943 6316l148 0 0 600 -148 0 0 -600zm0 -203l0 0 148 0 0 148 -148 0 0 -148z"/>
  <g id="_310184024">
   <path class="fil0" d="M5724 6784c-60,94 -149,146 -266,146 -175,0 -315,-140 -315,-310 0,-173 140,-309 315,-309 117,0 208,50 268,144l-125 69c-34,-48 -82,-78 -143,-78 -95,0 -174,80 -174,173 0,93 79,173 174,173 61,0 109,-27 143,-76l123 68z"/>
   <path class="fil0" d="M6562 6784c-60,94 -149,146 -267,146 -175,0 -315,-140 -315,-310 0,-173 140,-309 315,-309 117,0 208,50 268,144l-124 69c-34,-48 -82,-78 -143,-78 -95,0 -174,80 -174,173 0,93 79,173 174,173 61,0 109,-27 143,-76l123 68z"/>
  </g>
  <polygon class="fil0" points="6607,6113 6755,6113 6755,6916 6607,6916 "/>
  <g id="_310182000">
   <path class="fil0" d="M7122 6792c95,0 174,-80 174,-173 0,-93 -79,-173 -174,-173 -95,0 -174,80 -174,173 0,93 79,173 174,173zm0 -481l0 0c175,0 315,136 315,309 0,170 -140,310 -315,310 -175,0 -315,-140 -315,-310 0,-173 140,-309 315,-309z"/>
   <path class="fil0" d="M7481 6316l147 0 0 277c0,127 19,192 130,192 82,0 131,-52 131,-137l0 -332 147 0 0 600 -147 0 0 -48c-40,34 -96,54 -162,54 -180,0 -247,-114 -247,-291l0 -315z"/>
   <path class="fil0" d="M8402 6792c95,0 174,-80 174,-173 0,-93 -79,-173 -174,-173 -95,0 -174,80 -174,173 0,93 79,173 174,173zm174 84l0 0c-48,33 -114,53 -174,53 -175,0 -315,-140 -315,-310 0,-173 140,-309 315,-309 61,0 122,18 174,54l0 -251 147 0 0 803 -147 0 0 -40z"/>
   <path class="fil1" d="M2771 5104c-99,172 -285,288 -498,288 -318,0 -575,-257 -575,-575 0,-318 257,-575 575,-575 213,0 398,116 498,288l411 -237c-182,-314 -521,-525 -909,-525 -580,0 -1050,470 -1050,1050 0,580 470,1050 1050,1050 389,0 728,-211 909,-525l-411 -237z"/>
   <path class="fil1" d="M8723 4266l0 -450 -1150 0 0 450 250 0 0 700c0,497 403,900 900,900l0 -500c-221,0 -400,-179 -400,-400l0 -700 400 0z"/>
  </g>
  <polygon class="fil1" points="7323,5816 6823,5816 6823,3816 7323,3816 "/>
  <g id="_309940608">
   <path class="fil1" d="M4273 4241c228,0 425,133 518,325l-1036 0c93,-192 290,-325 518,-325zm1039 725l0 0c7,-49 11,-99 11,-150 0,-580 -470,-1050 -1050,-1050 -580,0 -1050,470 -1050,1050 0,580 470,1050 1050,1050 389,0 728,-211 909,-525l-411 -237c-99,172 -285,288 -498,288 -266,0 -489,-180 -555,-425l1594 0z"/>
   <path class="fil1" d="M6023 3955l0 -139 -500 0 0 2000 500 0 0 -1075c0,-249 202,-450 450,-450l150 0 0 -525c-223,0 -430,70 -600,188z"/>
   <path class="fil0" d="M7623 3066c0,304 -246,550 -550,550 -304,0 -550,-246 -550,-550 0,-304 246,-550 550,-550 304,0 550,246 550,550z"/>
   <path class="fil2" d="M6757 3145c0,31 28,69 89,69 49,0 75,-24 75,-49 0,-34 -48,-40 -92,-46 -55,-8 -179,-20 -179,-139 0,-87 68,-147 186,-147 117,0 185,57 192,148l-113 0c-3,-26 -11,-58 -76,-58 -43,0 -70,14 -70,37 0,36 61,42 107,50 91,15 170,40 170,140 0,103 -86,149 -201,149 -129,0 -201,-58 -206,-155l118 0z"/>
   <path class="fil2" d="M7415 3130c-22,38 -63,64 -110,64 -70,0 -128,-57 -128,-128 0,-70 57,-127 128,-127 47,0 88,26 110,64l91 -53c-40,-70 -115,-116 -202,-116 -129,0 -233,104 -233,233 0,129 104,233 233,233 86,0 161,-47 202,-116l-91 -53z"/>
  </g>
 </g>
</svg>
