<?xml version="1.0" encoding="utf-8"?>
<!-- Generator: Adobe Illustrator 19.2.0, SVG Export Plug-In . SVG Version: 6.00 Build 0)  -->
<svg version="1.1" id="Layer_1" xmlns="http://www.w3.org/2000/svg" xmlns:xlink="http://www.w3.org/1999/xlink" x="0px" y="0px"
	 viewBox="0 0 283.5 283.5" enable-background="new 0 0 283.5 283.5" xml:space="preserve">
<g>
	<path fill="#CCCCCB" d="M201.8,65.2c-6.2,0-11.2,4.9-11.2,11v99.9c0,9-3.4,17.2-9.1,23.8V76c0-5.3-4-9.9-9.3-10.6
		c-5.4-0.8-10.7,2.3-12,7.6c-18.3,74.2-18.5,74.8-18.5,74.8c0,0-0.1-0.6-18.5-74.8c-1.3-5.3-6.6-8.4-12-7.6
		c-5.4,0.8-9.3,5.3-9.3,10.6V200c-5.7-6.6-9.1-14.8-9.1-23.8V76.2c0-6.1-5-11-11.2-11c-6.2,0-10.7,4.9-10.7,11v99.9
		c0,35.1,31.3,59.7,70.8,59.7c39.6,0,70.8-24.6,70.8-59.7V76.2C212.6,70.1,208,65.2,201.8,65.2z M122.7,213.5v-63.1
		c0,0.3,0.9,4,13,50.4c0.6,2.2,2.4,4.6,6.1,4.6c3.8,0,5.4-2.1,6.1-4.6c3.7-14.3,12.9-50.2,12.9-50.2l0,62.9c-5.8,2-12.2,3-19,3
		C135,216.5,128.6,215.5,122.7,213.5z M17.2,90.7l0.1,2c0.1,1.3,0.2,1.5,1.3,2c5,2.3,13.5,5.6,16,6.2c0.6,0.2,1,0,1.5-0.5l1.2-1.7
		l0.5,0.1c-0.7,2.1-1.5,4.4-2,6.4c-5.9,0.6-11.7,1.5-17.6,2.4c4.4,4.1,9.1,7.9,13.8,11.6c-0.5,2-1,4.3-1.5,6.6l-0.5-0.1l-0.2-1.6
		c-0.2-1.5-0.3-1.9-0.9-2c-2.3-0.6-15.1-2.5-17.3-2.8c-1.1-0.1-1.4,0.2-1.9,1l-1,1.7l-0.5-0.1c0.6-1.5,1.1-3.1,1.6-4.6
		c0.4-1.6,0.7-3.2,1-4.8l0.5,0.1l0.1,1.8c0.1,1.2,0.4,1.7,0.7,1.8c1.7,0.5,14.9,2.4,16.7,2.6l0-0.1c-5.6-4.7-10.7-8.9-16.1-13.1
		l0.1-0.4c7.1-0.6,14-1.8,20.9-2.8l0-0.1c-4.3-1.7-13.7-4.9-15.9-5.5c-0.8-0.2-1.2,0-1.8,0.9L15,99l-0.5-0.1
		c0.5-1.4,1.1-2.8,1.5-4.2c0.4-1.3,0.6-2.7,0.8-4L17.2,90.7z M8.7,125.1c0.3,0.8,0.6,1.8,1.1,2.7c7.1,3.3,15,7.3,21.2,10l0,0.8
		c-7.4,2.6-14.7,5.5-21.9,8.2l-1.1,2.9l-0.5,0c0.2-1.8,0.4-3.7,0.5-5.5c0-1.6,0-3.1-0.1-4.7l0.5,0c0.2,0.9,0.6,2.4,1,3.5
		c1.5-0.4,4.8-1.4,5.9-1.8c0.1-1.5,0.2-3,0.2-4.4c0-1.5,0.1-2.9,0.1-4.4c-1.8-1-3.8-1.6-5.7-2.2l-1.2,3l-0.5,0
		c0.2-1.4,0.4-2.7,0.4-4.1c0-1.3-0.1-2.6-0.2-3.9L8.7,125.1z M25.9,137.2l-9.1-4.3l-0.3,7.9L25.9,137.2z M14.4,153.9l0.1,0.5
		l-4.3,1.8c-0.4,1.1-0.4,2.8-0.3,3.6c0.4,2.8,2,5.1,5.2,4.6c4.9-0.7,2.9-11.5,9.4-12.5c4.2-0.6,6.8,3,7.4,6.7
		c0.2,1.5,0.1,3.7-0.4,5.3l-4.8,0.5l-0.1-0.4l3.6-1.9c0.3-1.2,0.3-2.4,0.1-3.6c-0.3-2.2-2.3-3.9-4.6-3.6c-5.4,0.8-2.5,11.4-9.6,12.5
		c-3,0.4-6.8-1.3-7.8-8.1c-0.2-1.7-0.3-3.2,0.2-5.3L14.4,153.9z M11.3,172.9c0.6,0.7,1.2,1.5,1.9,2.1c7.8,0.6,16.6,1.6,23.4,2
		l0.2,0.7c-6,5-11.9,10.3-17.7,15.4l0,3.1l-0.5,0.2c-0.5-1.8-0.9-3.6-1.5-5.3c-0.5-1.5-1.1-2.9-1.8-4.4l0.5-0.2
		c0.5,0.8,1.4,2,2.1,2.9c1.3-0.9,4-3,4.9-3.8c-0.4-1.4-0.9-2.8-1.4-4.2c-0.5-1.4-1-2.7-1.5-4.1c-2-0.3-4.1-0.2-6.1,0l-0.1,3.2
		l-0.5,0.2c-0.3-1.3-0.6-2.7-1.1-4c-0.4-1.2-1-2.4-1.5-3.6L11.3,172.9z M31.6,178.2l-10.1-0.8l2.5,7.5L31.6,178.2z M20.8,199.4
		l2.1,1.9c0.8,0.7,1,0.7,3.3-0.6l10.9-6.4c2.8-1.7,3-1.9,2.8-2.7l-0.6-3l0.4-0.2c0.5,1.2,1.2,2.7,2.2,4.3c0.9,1.6,2.2,3.2,3.4,5.3
		c2.3,4,2.2,7.5-0.8,9.3c-3.1,1.8-5.8,0.4-7.8-2.1l-3.8,7.8c-1.6,3.3-1.7,3.6-1,5.4l-0.4,0.2c-0.3-0.7-0.7-1.5-1.1-2.2
		c-0.4-0.7-0.9-1.4-1.4-2.2c2.1-3.8,4.4-8.8,5.8-12.1l-1.4-2.3l-3.5,2c-3.9,2.3-4.6,2.8-4.4,3.7l0.6,2.9l-0.4,0.2
		c-0.6-1.4-1.7-3.5-2.3-4.5c-0.9-1.5-2-3.2-3-4.6L20.8,199.4z M34.3,199.3l1.2,2.1c1.6,2.8,3.6,5.1,6.9,3.2c2.7-1.6,2.7-4.1,1.1-6.9
		c-0.6-1-1.1-1.9-1.7-2.8L34.3,199.3z M37.2,225l1.4,0.9c1.5,1,2.1,1.1,3.1,0.2l4.1-3.5c2.5-6.4,3.8-9.7,4.8-13.4
		c0-0.7-0.4-1.5-0.6-2.2l0.4-0.3c0.9,1.2,1.8,2.5,2.8,3.6c1,1.2,2.1,2.3,3.3,3.4l-0.4,0.3c-1.7-1.2-2.4-1.5-3-1
		c-0.6,0.5-3.9,8.9-4.2,10.2c3.1-0.7,10.3-2.4,10.9-3c0.4-0.4-0.3-1.8-0.9-2.8l0.4-0.3c0.7,1,1.4,2.1,2.2,3c0.7,0.8,1.5,1.6,2.4,2.3
		l-0.4,0.3c-1.1-1.1-2.4-0.8-4.4-0.4l-11.4,2.5l-4.1,3.5c-1,0.9-1,1.4-0.3,3.1l0.7,1.5l-0.4,0.3c-0.9-1.3-2.1-2.9-3.2-4.1
		c-1.1-1.3-2.6-2.8-3.7-3.8L37.2,225z M51.2,240.7l2.7,0.9c0.9,0.3,1.1,0.2,2.7-1.9c1.3-1.6,2.7-3.3,3.9-5c1.3-1.7,2.5-3.4,3.8-5.1
		c1.9-2.7,2.1-2.9,1.7-3.5l-1.7-2.6l0.3-0.4c1.3,1.1,2.5,2.3,4.1,3.5c1.4,1.1,2.8,2,4.3,2.9l-0.3,0.4l-2.9-1c-0.7-0.2-0.9,0-2.9,2.5
		c-1.3,1.6-2.7,3.3-3.9,5c-1.3,1.7-2.5,3.4-3.8,5.1c-1.6,2.2-1.6,2.3-1.1,3.1l1.6,2.4l-0.3,0.4c-1.2-1.1-2.8-2.5-4-3.4
		c-1.4-1.1-3.1-2.2-4.4-3L51.2,240.7z M62.7,249.4c1.9,0.7,2.5,1,2.7,0.8c0.2-0.2,0.1-0.6,0-1l-1.2-13l9.9-0.9
		c1.7-0.2,2.7-0.3,2.9-0.6c0.2-0.3-0.4-1.1-1.3-2.4l0.3-0.4c1.1,1,2.2,2.1,3.4,3c1,0.8,2.1,1.5,3.3,2.1l-0.3,0.4
		c-0.9-0.4-2.3-1-4.1-0.9l-11,0.7l1.5,15c0,0.3,0.2,1,0.2,1.1c0.2,0.4,0.7,1.2,1.3,1.9l-0.3,0.4c-1.3-1.1-2.6-2.3-3.9-3.3
		c-1.2-0.9-2.5-1.7-3.8-2.5L62.7,249.4z M74.8,257.4l2.8,0.5c0.9,0.1,1.1,0.1,2.4-2.3c1-1.8,2.1-3.7,3.1-5.6c1-1.9,1.9-3.8,2.9-5.7
		c1.5-2.9,1.6-3.2,1.1-3.7l-2.1-2.2l0.2-0.4c1.4,0.9,2.9,1.8,4.6,2.7c1.5,0.8,3.1,1.5,4.7,2.2l-0.2,0.4l-3.1-0.5
		c-0.7-0.1-0.8,0.1-2.4,3c-1,1.8-2.1,3.7-3.1,5.6c-1,1.9-1.9,3.8-2.9,5.7c-1.2,2.4-1.2,2.6-0.6,3.3l2,2.1l-0.2,0.4
		c-1.4-0.9-3.1-2-4.5-2.7c-1.5-0.8-3.4-1.6-4.9-2.3L74.8,257.4z M86.3,263.9c0.9,0,1.9-0.1,2.9-0.2c5.2-5.8,11.4-12.1,15.9-17.3
		l0.7,0.3c0.3,7.8,0.8,15.7,1.3,23.4l2.4,1.9l-0.2,0.5c-1.7-0.7-3.4-1.5-5.1-2.1c-1.5-0.5-3-0.9-4.5-1.3l0.2-0.5
		c0.9,0.1,2.5,0.2,3.6,0.1c0.1-1.5,0.1-5,0-6.2c-1.4-0.5-2.8-1-4.2-1.5c-1.4-0.5-2.8-0.9-4.2-1.4c-1.5,1.4-2.7,3.1-3.8,4.8l2.5,2
		l-0.2,0.5c-1.2-0.6-2.5-1.2-3.8-1.6c-1.2-0.4-2.5-0.7-3.8-1L86.3,263.9z M102.9,251l-6.8,7.4l7.4,2.6L102.9,251z M139.7,254.6
		l-2.4,0.5c-0.8,0.2-1.2,0.5-1.3,1.1c-0.5,2.8-1.5,8.9-1.8,10.9c-0.2,1.4-0.7,5.4-1.1,9.4l-0.8-0.1c-1.8-3.6-3.8-7-5.8-10.5
		l-5.9-10.4l-0.1,0l-0.5,3.9c-0.6,4.6-1.4,11.4-1.3,12.1c0,0.6,0.2,0.9,1.2,1.3l2.2,1l-0.1,0.5c-1.5-0.3-3.1-0.7-4.6-0.9
		c-1.5-0.2-3-0.2-4.5-0.3l0.1-0.5l2.8-0.7c0.5-0.1,0.9-0.4,0.9-0.7c0.3-1.1,1.2-6.2,1.7-10.7l0.9-6.9l-0.4-0.8c-1-0.6-2-1.1-3.1-1.6
		l0.1-0.5c1.1,0.3,2.2,0.6,3.3,0.7c1,0.1,2.1,0.1,3.2,0.1c0.5,1.3,1.1,2.5,1.8,3.7l8.2,14.4l0.1-0.1l1-8.4c0.2-1.7,0.4-3.4,0.5-5.1
		c0.1-1-0.2-1.3-1.1-1.8l-2.2-1.2l0.1-0.5c1.4,0.3,2.8,0.6,4.3,0.8c1.6,0.2,3.1,0.3,4.8,0.3L139.7,254.6z M140.6,275.8
		c0.8-0.4,1.8-0.8,2.6-1.4c2.4-7.4,5.5-15.7,7.5-22.2l0.8-0.1c3.4,7,7.1,14,10.7,20.9l3,0.8l0,0.5c-1.9,0-3.7,0-5.5,0.2
		c-1.6,0.1-3.1,0.4-4.7,0.7l0-0.5c0.9-0.3,2.3-0.9,3.3-1.4c-0.5-1.4-1.9-4.6-2.5-5.6c-1.5,0.1-3,0.2-4.4,0.3
		c-1.5,0.1-2.9,0.3-4.4,0.4c-0.8,1.9-1.2,4-1.5,6l3.1,0.8l0,0.5c-1.4,0-2.7-0.1-4.1,0.1c-1.3,0.1-2.6,0.4-3.8,0.6L140.6,275.8z
		 M150.6,257.3l-3.2,9.6l7.8-0.6L150.6,257.3z M177.1,253.3c-1.2-3.1-1.4-3.3-2.2-3.2l-3.1,0.1l-0.2-0.5c1.8-0.6,3.6-1.1,4.9-1.6
		c1.3-0.5,3.7-1.7,5.5-2.4c3.5-1.3,7.6-1.2,9.1,2.7c1,2.7-1.3,5.4-4.2,6.9l0,0.1c3.3-1,7.5-1.3,9,2.6c1.2,3-0.2,6.5-4.9,8.3
		c-2.5,1-5.1,1.7-7.2,2.5c-1.5,0.6-2.8,1.2-4.2,1.9l-0.2-0.5l2.2-1.8c0.8-0.6,0.9-0.8-0.1-3.3L177.1,253.3z M181.6,256.9l2.5-1
		c2.2-0.8,5.3-2.5,3.9-6.2c-1.2-3.2-4-3.5-6.7-2.4c-1,0.4-1.7,0.7-2.8,1.2c0.5,1.5,0.8,2.5,1.4,4L181.6,256.9z M184.4,264.2
		c0.4,1,0.8,2,1.3,3c0.9-0.3,1.7-0.5,2.5-0.9c3.2-1.2,6.1-3.2,4.6-7c-1.4-3.6-4.8-3.6-8.5-2.2L182,258L184.4,264.2z M205.1,259.8
		l1.8-2.2c0.7-0.8,0.7-1-0.8-3.3l-6.9-10.6c-1.8-2.8-2-2.9-2.8-2.7l-3,0.8l-0.3-0.4c1.2-0.6,2.6-1.4,4.2-2.4c1.5-1,3-2.3,5.1-3.7
		c3.9-2.5,7.4-2.6,9.3,0.4c1.9,3,0.7,5.7-1.7,7.9l8,3.4c3.4,1.4,3.6,1.6,5.5,0.8l0.3,0.4c-0.7,0.4-1.5,0.8-2.1,1.2
		c-0.7,0.5-1.4,1-2.1,1.5c-3.9-2-9-4-12.4-5.2l-2.3,1.5l2.2,3.4c2.5,3.8,3,4.4,3.9,4.2l2.9-0.7l0.3,0.4c-1.3,0.7-3.4,1.9-4.4,2.5
		c-1.5,1-3.1,2.2-4.5,3.2L205.1,259.8z M204.4,246.2l2-1.3c2.7-1.8,5-3.9,2.9-7.1c-1.7-2.6-4.2-2.5-7-0.7c-0.9,0.6-1.8,1.2-2.7,1.8
		L204.4,246.2z M229.7,212.1l-0.7,1.5c-0.4,0.9-0.5,1.5,0,2c1.3,1.4,3.4,3.4,7.8,7.8c4.8,4.8,4.2,9,0.6,12.7
		c-3.6,3.6-7.6,4.6-11.4,0.8l-7-6.9c-2.1-2.1-2.7-2.5-3.6-2.1l-2.5,1.1l-0.3-0.3c1.3-1.1,2.6-2.2,3.7-3.4c1.3-1.3,2.5-2.7,3.7-4.1
		l0.3,0.3l-0.7,1.6c-0.8,1.9-0.9,2.2-0.1,3.1c1.4,1.5,3.5,3.6,7.4,7.4c3.2,3.2,6,4.5,9.9,0.5c2.6-2.6,2.5-5.8-0.5-8.7
		c-3.1-3-7-6.9-8.9-8.4c-0.5-0.4-1.1-0.2-2,0.2l-1.8,0.9l-0.3-0.3c1.2-1,2.3-1.9,3.4-3c0.9-0.9,1.8-2,2.7-3.1L229.7,212.1z
		 M243.4,190.9l-0.5,2.4c-0.2,0.8-0.1,1.3,0.5,1.6c2.3,1.6,7.5,5.1,9.2,6.2c1.2,0.8,4.6,2.9,8.1,4.9l-0.4,0.7c-4,0.1-8,0.5-12,0.8
		l-11.9,1l0,0.1l3.3,2.1c3.9,2.4,9.8,6,10.4,6.3c0.5,0.2,0.9,0.1,1.7-0.5l1.8-1.6l0.4,0.3c-0.9,1.2-1.9,2.5-2.7,3.8
		c-0.8,1.3-1.5,2.6-2.1,3.9l-0.4-0.3l0.5-2.8c0.1-0.5,0-0.9-0.2-1.1c-0.9-0.7-5.2-3.7-9-6.1l-5.9-3.7l-0.8,0c-1,0.7-1.9,1.4-2.8,2.1
		l-0.4-0.3c0.7-0.9,1.4-1.8,2-2.7c0.6-0.9,1-1.9,1.4-2.8c1.4,0.1,2.7,0.1,4.1-0.1l16.5-1.4l0-0.1l-7.2-4.5c-1.4-0.9-2.9-1.8-4.4-2.6
		c-0.9-0.5-1.3-0.4-2.1,0.3l-2,1.5l-0.4-0.3c0.9-1.1,1.8-2.3,2.5-3.5c0.8-1.3,1.5-2.7,2.3-4.2L243.4,190.9z M249.4,187.5
		c-3.1-1.1-3.4-1.1-3.9-0.5l-1.9,2.4l-0.5-0.2c1.1-2.7,2.2-5.1,3.1-7.6c1.1-3.1,2.1-6.3,3.1-9.2c0.8,0.3,2,0.8,2.5,1
		c0.5,0.2,1.6,0.5,2.4,0.8l-0.2,0.5l-2.8,0c-1,0-1.1,0.3-2.5,4c-0.7,1.9-1.2,3.4-1.6,4.7c1.1,0.5,2.3,1,3.7,1.5l4,1.5l1.2-3.4
		c1.5-4,1.5-4.4,0.9-4.9l-2-1.7l0.2-0.5c1.2,0.5,2.5,1,3.7,1.4c1.3,0.5,2.6,0.9,4,1.4l-0.2,0.5l-2.8-0.1c-0.8,0-1,0.4-2.5,4.3
		l-1.2,3.4l4.5,1.6c1.5,0.6,3.1,1,4.5,1.4c0.6-1.5,1.3-3,1.8-4.5c1.3-3.5,1.4-4,1.2-4.5c-0.3-0.6-1.3-1.3-3-2.6l0.2-0.5
		c0.9,0.4,1.9,0.9,2.8,1.3l2.5,0.9c-0.8,1.7-2.7,6.7-3.4,8.5c-1.1,2.9-2.1,6.1-2.8,8.5l-0.5-0.2l0.1-2.8c0-1,0-1.2-2.6-2.1
		L249.4,187.5z M254.5,145.5l0.5,2.4c0.2,0.8,0.5,1.2,1.1,1.3c2.8,0.5,8.9,1.6,10.9,1.9c1.4,0.2,5.4,0.8,9.4,1.2l-0.1,0.8
		c-3.6,1.8-7.1,3.7-10.6,5.6l-10.4,5.7l0,0.1l3.9,0.5c4.6,0.6,11.4,1.5,12.1,1.5c0.6,0,0.9-0.2,1.3-1.2l1-2.2l0.5,0.1
		c-0.4,1.5-0.7,3-0.9,4.6c-0.2,1.5-0.3,3-0.3,4.5l-0.5-0.1l-0.6-2.8c-0.1-0.5-0.4-0.9-0.7-0.9c-1.1-0.3-6.2-1.3-10.7-1.9l-6.9-1
		l-0.8,0.4c-0.6,1-1.2,2-1.7,3.1l-0.5-0.1c0.3-1.1,0.6-2.2,0.7-3.3c0.1-1,0.2-2.1,0.2-3.2c1.3-0.5,2.5-1.1,3.7-1.7l14.5-8l-0.1-0.1
		l-8.4-1.2c-1.7-0.2-3.4-0.4-5.1-0.6c-1-0.1-1.3,0.2-1.9,1.1l-1.3,2.2l-0.5-0.1c0.3-1.4,0.7-2.8,0.9-4.3c0.2-1.6,0.3-3.1,0.4-4.8
		L254.5,145.5z M269.7,140.9l0-0.5l4.4-1.4c0.5-1.1,0.7-2.7,0.6-3.6c-0.2-2.8-1.6-5.3-4.8-5.1c-5,0.3-3.9,11.2-10.5,11.6
		c-4.2,0.2-6.5-3.6-6.7-7.3c-0.1-1.5,0.2-3.7,0.8-5.2l4.8-0.1l0,0.4l-3.8,1.6c-0.4,1.2-0.5,2.4-0.5,3.6c0.1,2.2,2,4.1,4.3,4
		c5.5-0.3,3.5-11.2,10.7-11.6c3-0.2,6.7,1.9,7.1,8.8c0.1,1.7,0,3.2-0.7,5.2L269.7,140.9z M273.7,120.6l-1.4-2.5
		c-0.5-0.8-0.6-0.9-3.3-0.4c-2.1,0.4-4.2,0.7-6.2,1.1c-2.1,0.4-4.1,0.9-6.2,1.3c-3.2,0.7-3.4,0.8-3.6,1.5l-0.4,3.1l-0.5,0.1
		c-0.2-1.7-0.4-3.4-0.8-5.3c-0.3-1.7-0.8-3.4-1.3-5.1l0.5-0.1l1.5,2.7c0.4,0.6,0.6,0.6,3.9,0c2.1-0.4,4.2-0.7,6.2-1.1
		c2.1-0.4,4.1-0.9,6.2-1.3c2.6-0.6,2.8-0.7,2.9-1.6l0.4-2.8l0.5-0.1c0.2,1.6,0.4,3.7,0.7,5.2c0.3,1.7,0.9,3.7,1.3,5.2L273.7,120.6z
		 M264.4,105.4l-0.2-0.5l3.9-2.6c0.2-1.2-0.1-2.8-0.4-3.6c-0.9-2.6-3-4.6-6-3.5c-4.7,1.7-0.6,11.8-6.9,14c-4,1.4-7.2-1.6-8.5-5.2
		c-0.5-1.4-0.8-3.6-0.7-5.3l4.6-1.4l0.1,0.4l-3.2,2.6c0,1.3,0.2,2.4,0.5,3.6c0.7,2.1,3,3.4,5.2,2.6c5.2-1.8,0.2-11.7,7.1-14.1
		c2.9-1,6.9,0,9.2,6.5c0.6,1.6,0.9,3.1,0.8,5.2L264.4,105.4z M46.4,47.6l-0.5,1.6c-0.3,0.9-0.4,1.5,0.2,2c1.5,1.3,3.7,3.1,8.5,7.1
		c5.2,4.4,5,8.5,1.7,12.6c-3.2,3.9-7.2,5.2-11.3,1.8l-7.6-6.3c-2.3-1.9-2.9-2.2-3.8-1.7l-2.4,1.3l-0.4-0.3c1.2-1.2,2.4-2.4,3.4-3.7
		c1.2-1.4,2.2-2.9,3.3-4.4l0.4,0.3l-0.6,1.6c-0.7,2-0.7,2.3,0.2,3.1c1.5,1.4,3.8,3.3,8,6.7c3.5,2.9,6.4,3.9,9.9-0.4
		c2.3-2.8,2-6-1.3-8.7c-3.3-2.7-7.6-6.3-9.7-7.6c-0.5-0.3-1.1-0.1-1.9,0.4l-1.7,1.1L40.5,54c1.1-1.1,2.1-2.1,3.1-3.3
		c0.8-1,1.6-2.2,2.4-3.3L46.4,47.6z M69.6,29l-1.3,2.1c-0.4,0.7-0.5,1.2-0.1,1.7c1.7,2.3,5.2,7.4,6.5,9c0.9,1.1,3.3,4.3,5.9,7.4
		l-0.7,0.5c-3.8-1.3-7.7-2.3-11.5-3.4l-11.5-3.2l-0.1,0l2.4,3.1c2.8,3.6,7.1,9.1,7.6,9.5c0.4,0.4,0.8,0.4,1.8,0.1l2.3-0.8l0.3,0.4
		c-1.3,0.8-2.6,1.7-3.8,2.6C66.1,59,65,60,63.9,61l-0.3-0.4l1.5-2.4c0.3-0.4,0.3-0.9,0.2-1.2c-0.6-1-3.6-5.2-6.3-8.8l-4.3-5.5
		l-0.8-0.3c-1.2,0.3-2.3,0.6-3.3,1.1l-0.3-0.4c1-0.6,1.9-1.2,2.8-1.8c0.8-0.6,1.6-1.4,2.3-2.2c1.3,0.6,2.5,1,3.9,1.4l16,4.4l0-0.1
		l-5.2-6.7c-1-1.3-2.1-2.7-3.2-3.9c-0.7-0.7-1-0.8-2.1-0.5l-2.4,0.7L62,34.1c1.2-0.8,2.5-1.6,3.6-2.4c1.2-1,2.4-2,3.6-3.1L69.6,29z
		 M83.9,45.7l1.9-2.1c0.6-0.7,0.6-0.9-0.6-3.3c-1-1.9-1.9-3.8-2.9-5.6c-1-1.8-2.1-3.7-3.1-5.5c-1.6-2.9-1.8-3.1-2.5-3l-3.1,0.5
		l-0.2-0.4c1.5-0.7,3.1-1.4,4.8-2.3c1.5-0.8,3-1.8,4.5-2.7l0.2,0.4l-2.1,2.3c-0.5,0.5-0.4,0.8,1.1,3.7c1,1.9,1.9,3.8,2.9,5.6
		c1,1.8,2.1,3.7,3.1,5.5c1.3,2.4,1.5,2.4,2.4,2.3l2.8-0.5l0.2,0.4c-1.5,0.7-3.4,1.5-4.7,2.2c-1.5,0.8-3.3,1.9-4.6,2.8L83.9,45.7z
		 M86.6,19.1c1.6-0.4,3.2-0.8,4.7-1.4c1.4-0.5,2.8-1.1,4.1-1.7l0.2,0.5l-1,0.7c-1.4,1-1.6,1.2-1.5,1.6c0.2,0.7,8.1,9.5,10.9,12.4
		c0.3-5.5,0.5-10.9,0.4-15c0-0.7,0-1.1-0.1-1.4c-0.1-0.4-1.3-0.4-2.9-0.3l-0.2-0.5c1.3-0.3,2.6-0.6,3.9-1.1c1-0.4,2-0.8,2.9-1.3
		l0.2,0.5c-1.3,0.9-1.6,1.4-1.8,2.7c-0.5,5.3-0.8,12.7-0.9,22l-0.8,0.3c-4.3-5.3-10.6-12.4-14.3-16.4c-1-1-1.2-1.1-2.4-1l-1,0
		L86.6,19.1z M117.5,15.2c-0.5-3.3-0.6-3.5-1.4-3.6l-3-0.6l-0.1-0.5c2.9-0.3,5.5-0.5,8.2-0.9c3.3-0.5,6.5-1.1,9.6-1.6
		c0.1,0.9,0.2,2.1,0.3,2.6c0.1,0.5,0.3,1.7,0.5,2.5l-0.5,0.1l-1.3-2.5c-0.5-0.9-0.8-0.9-4.7-0.3c-2,0.3-3.6,0.5-4.9,0.8
		c0.1,1.2,0.2,2.5,0.4,4l0.6,4.3l3.6-0.5c4.2-0.6,4.6-0.7,4.8-1.5l0.6-2.6l0.5-0.1c0.2,1.3,0.3,2.6,0.5,3.9c0.2,1.4,0.4,2.7,0.7,4.2
		l-0.5,0.1l-1.3-2.5c-0.4-0.7-0.8-0.7-5-0.1l-3.6,0.5l0.7,4.7c0.2,1.6,0.6,3.2,0.8,4.6c1.6-0.2,3.3-0.3,4.8-0.5
		c3.7-0.5,4.2-0.6,4.5-1.1c0.3-0.6,0.6-1.7,0.9-3.9l0.5-0.1c0.1,1,0.1,2.1,0.2,3.1l0.4,2.6c-1.8,0.1-7.2,0.7-9.1,1
		c-3,0.4-6.4,1-8.8,1.5l-0.1-0.5l2.5-1.3c0.9-0.4,1-0.6,0.7-3.3L117.5,15.2z M137.1,29.3l2.7-0.8c1-0.3,1.1-0.4,1.3-3.1l0.7-12.7
		c0.2-3.3,0.1-3.5-0.7-3.8l-2.9-1.1l0-0.5c1.3,0.2,2.9,0.4,4.8,0.5c1.8,0.1,3.8-0.1,6.3,0.1c4.6,0.3,7.5,2.3,7.3,5.8
		c-0.2,3.5-2.8,5.1-6,5.4l4.4,7.5c1.9,3.2,2,3.4,4,3.9l0,0.5c-0.8-0.1-1.6-0.2-2.4-0.3c-0.8,0-1.7,0-2.6,0c-2-3.9-4.9-8.5-6.9-11.5
		l-2.7-0.1l-0.2,4c-0.3,4.5-0.2,5.4,0.7,5.7l2.7,1.1l0,0.5c-1.5-0.2-3.8-0.5-5.1-0.6c-1.8-0.1-3.8-0.1-5.5,0L137.1,29.3z M144.5,18
		l2.4,0.1c3.2,0.2,6.3-0.2,6.5-4c0.2-3.1-1.9-4.5-5.2-4.7c-1.1-0.1-2.2-0.1-3.2-0.1L144.5,18z M164,25.9l0.5,0.1l0.1,4.7
		c0.9,0.8,2.4,1.4,3.3,1.6c2.7,0.7,5.5,0.1,6.3-3.1c1.2-4.8-9.5-7.1-7.9-13.5c1-4.1,5.3-5.2,9-4.2c1.4,0.4,3.5,1.3,4.8,2.3l-1.4,4.6
		l-0.4-0.1l-0.4-4.1c-1-0.7-2.1-1.2-3.3-1.5c-2.1-0.5-4.5,0.6-5.1,2.9c-1.3,5.3,9.6,6.6,7.9,13.7c-0.7,3-3.8,5.8-10.5,4.1
		c-1.6-0.4-3-1-4.8-2.2L164,25.9z M178.9,36l2.8,0.2c0.9,0,1.1-0.1,2.1-2.5c0.8-1.9,1.7-3.9,2.5-5.8c0.8-1.9,1.5-4,2.3-5.9
		c1.2-3.1,1.2-3.3,0.7-3.8l-2.4-2l0.2-0.5c1.5,0.8,3,1.5,4.9,2.3c1.6,0.7,3.3,1.2,4.9,1.7l-0.2,0.5l-3.1-0.2c-0.7,0-0.8,0.2-2.1,3.2
		c-0.8,1.9-1.7,3.9-2.5,5.8c-0.8,1.9-1.5,4-2.3,5.9c-1,2.5-0.9,2.7-0.2,3.3l2.2,1.9l-0.2,0.5c-1.5-0.7-3.3-1.6-4.7-2.2
		c-1.6-0.7-3.6-1.3-5.1-1.8L178.9,36z M201.1,21.3c2.6,1.7,5.1,3.3,7.7,4.8c2.6,1.5,5.3,2.9,8,4.3l-3,5.1l-0.4-0.2l0.5-2.9
		c0.2-1.3-0.1-1.6-4.6-4.2l-7.7,13.2c-0.9,1.5-1.3,2.3-1.3,2.9c0,0.5,0.4,1.2,2.2,3.3l-0.2,0.4c-1.4-0.9-2.6-1.8-4.5-2.9
		c-1.9-1.1-3.3-1.7-4.8-2.4l0.2-0.4c2.7,0.6,3.6,0.6,4,0.3c0.4-0.3,0.9-1.1,1.8-2.6l7.7-13.2c-4.5-2.6-4.9-2.7-5.9-1.9l-2.3,1.9
		l-0.4-0.2L201.1,21.3z M205.1,48.6c0.8,0.3,1.8,0.7,2.8,0.9c7-3.5,15.1-7.1,21.1-10.3l0.6,0.5c-2.6,7.4-4.9,14.9-7.3,22.3l1.6,2.7
		l-0.3,0.4c-1.3-1.3-2.6-2.6-4-3.8c-1.2-1-2.5-1.9-3.7-2.8L216,58c0.8,0.4,2.2,1,3.3,1.4c0.6-1.4,1.9-4.6,2.2-5.7
		c-1.1-1-2.2-2-3.3-2.9c-1.1-1-2.2-1.9-3.4-2.8c-1.9,0.7-3.6,1.9-5.3,3.1l1.6,2.8l-0.3,0.4c-0.9-1-1.9-2-3-2.9
		c-1-0.8-2.1-1.6-3.1-2.3L205.1,48.6z M225.3,42.7l-9.1,4.4l6,5.1L225.3,42.7z M230.2,63.8l0.3,0.4l-2.8,3.7c0.2,1.2,1,2.6,1.6,3.3
		c1.7,2.2,4.3,3.4,6.9,1.4c3.9-3.1-3.2-11.4,2-15.5c3.3-2.6,7.4-0.8,9.7,2.2c0.9,1.2,1.9,3.2,2.3,4.8l-3.9,2.8l-0.2-0.3l2.2-3.5
		c-0.4-1.2-0.9-2.3-1.7-3.2c-1.4-1.7-4-2.3-5.8-0.8c-4.3,3.4,3.6,11.1-2.1,15.6c-2.4,1.9-6.5,2.3-10.8-3.2c-1-1.3-1.8-2.6-2.4-4.7
		L230.2,63.8z M255.3,82.5c0,2-1.6,3.5-3.5,3.5c-2,0-3.5-1.6-3.5-3.5c0-2,1.6-3.5,3.5-3.5C253.7,79,255.3,80.6,255.3,82.5z
		 M35.6,82.5c0,2-1.6,3.5-3.5,3.5s-3.5-1.6-3.5-3.5c0-2,1.6-3.5,3.5-3.5S35.6,80.6,35.6,82.5z"/>
</g>
</svg>
