<?xml version="1.0" encoding="utf-8"?>
<!-- Generator: Adobe Illustrator 18.1.1, SVG Export Plug-In . SVG Version: 6.00 Build 0)  -->
<!DOCTYPE svg PUBLIC "-//W3C//DTD SVG 1.1//EN" "http://www.w3.org/Graphics/SVG/1.1/DTD/svg11.dtd">
<svg version="1.1" id="Vrstva_1" xmlns="http://www.w3.org/2000/svg" xmlns:xlink="http://www.w3.org/1999/xlink" x="0px" y="0px"
	 viewBox="0 0 32.3 21" enable-background="new 0 0 32.3 21" xml:space="preserve">
<g>
	<path fill="#FFFFFF" d="M2.7,6.1C3.1,6,3.6,5.9,4.1,5.9c0.5,0,1-0.1,1.5-0.1c0.5,0,1.1,0,1.6,0.1c0.5,0.1,1,0.3,1.5,0.5
		s0.8,0.6,1.1,1.1c0.3,0.5,0.4,1.1,0.4,1.8c0,0.7-0.1,1.3-0.4,1.7c-0.2,0.5-0.5,0.8-0.9,1.1c-0.4,0.3-0.8,0.5-1.3,0.6
		c-0.5,0.1-1,0.2-1.5,0.2c-0.1,0-0.1,0-0.2,0c-0.1,0-0.2,0-0.4,0s-0.2,0-0.4,0c-0.1,0-0.2,0-0.3,0v3.7H2.7V6.1z M5.9,7.6
		c-0.2,0-0.4,0-0.6,0c-0.2,0-0.3,0-0.4,0.1v3.5c0,0,0.1,0,0.2,0c0.1,0,0.2,0,0.3,0c0.1,0,0.2,0,0.3,0c0.1,0,0.2,0,0.2,0
		c0.3,0,0.6,0,0.8-0.1c0.3-0.1,0.5-0.1,0.7-0.3c0.2-0.1,0.4-0.3,0.5-0.6C7.9,10.1,8,9.7,8,9.3C8,9,7.9,8.7,7.8,8.5
		C7.7,8.3,7.5,8.1,7.3,8S6.9,7.7,6.6,7.7C6.4,7.6,6.1,7.6,5.9,7.6z"/>
	<path fill="#FFFFFF" d="M11.9,6.1C12.1,6,12.4,6,12.7,6c0.3,0,0.5-0.1,0.8-0.1c0.3,0,0.5,0,0.8,0c0.3,0,0.5,0,0.7,0
		c0.5,0,1,0,1.5,0.1C17,6,17.4,6.2,17.8,6.4c0.4,0.2,0.7,0.5,0.9,0.9c0.2,0.4,0.3,0.9,0.3,1.5c0,0.9-0.2,1.6-0.6,2.2
		c-0.4,0.6-1,0.9-1.6,1.2l0.8,0.5l2.5,4.1h-2.4l-2.4-4.2L14,12.3v4.4h-2.1V6.1z M15.1,7.7c-0.2,0-0.4,0-0.6,0c-0.2,0-0.4,0-0.5,0.1
		v3.1h0.9c0.6,0,1.1-0.1,1.4-0.4c0.3-0.3,0.5-0.7,0.5-1.3c0-0.5-0.1-0.8-0.4-1.1C16.1,7.8,15.7,7.7,15.1,7.7z"/>
	<path fill="#FFFFFF" d="M20.9,11.3c0-1.8,0.4-3.2,1.2-4.1c0.8-1,1.9-1.5,3.4-1.5c0.8,0,1.4,0.1,2,0.4c0.6,0.3,1.1,0.6,1.4,1.1
		s0.7,1.1,0.8,1.8c0.2,0.7,0.3,1.5,0.3,2.3c0,1.8-0.4,3.2-1.2,4.1c-0.8,1-1.9,1.5-3.4,1.5c-0.8,0-1.5-0.1-2-0.4
		c-0.6-0.3-1-0.6-1.4-1.1c-0.4-0.5-0.7-1.1-0.8-1.8S20.9,12.2,20.9,11.3z M23.1,11.3c0,0.5,0,1,0.1,1.5c0.1,0.5,0.2,0.8,0.4,1.2
		c0.2,0.3,0.4,0.6,0.7,0.8c0.3,0.2,0.7,0.3,1.1,0.3c0.7,0,1.3-0.3,1.7-0.9c0.4-0.6,0.6-1.5,0.6-2.8c0-0.5,0-1-0.1-1.5
		c-0.1-0.5-0.2-0.8-0.4-1.2s-0.4-0.6-0.7-0.8c-0.3-0.2-0.7-0.3-1.1-0.3c-0.7,0-1.3,0.3-1.7,0.9C23.3,9.1,23.1,10.1,23.1,11.3z"/>
</g>
<g>
</g>
<g>
</g>
<g>
</g>
<g>
</g>
<g>
</g>
<g>
</g>
</svg>
