<?xml version="1.0" encoding="utf-8"?>
<!-- Generator: Adobe Illustrator 18.1.1, SVG Export Plug-In . SVG Version: 6.00 Build 0)  -->
<!DOCTYPE svg PUBLIC "-//W3C//DTD SVG 1.1//EN" "http://www.w3.org/Graphics/SVG/1.1/DTD/svg11.dtd">
<svg version="1.1" id="Vrstva_1" xmlns="http://www.w3.org/2000/svg" xmlns:xlink="http://www.w3.org/1999/xlink" x="0px" y="0px"
	 viewBox="0 0 32.3 21" enable-background="new 0 0 32.3 21" xml:space="preserve">
<g>
	<path fill="#FFFFFF" d="M7.4,6h2v7c0,0.7-0.1,1.3-0.3,1.8S8.7,15.6,8.4,16c-0.3,0.3-0.7,0.6-1.2,0.7c-0.5,0.2-1,0.2-1.6,0.2
		c-2.7,0-4.1-1.2-4.1-3.7V6h2.1v6.8c0,0.4,0,0.8,0.1,1.1c0.1,0.3,0.2,0.5,0.4,0.7c0.2,0.2,0.4,0.3,0.6,0.4C5,15,5.3,15,5.6,15
		c0.6,0,1.1-0.2,1.4-0.5c0.3-0.4,0.4-0.9,0.4-1.7V6z M6.3,3.3h2.4v0.5L6.3,5.2H4.7L6.3,3.3z"/>
	<path fill="#FFFFFF" d="M14.5,11.1l-0.8-1.7h-0.1l0.2,1.7v5.6h-2V5.9h1.5l4.1,5.7l0.8,1.6h0.1L18,11.6V6h2v10.9h-1.5L14.5,11.1z"/>
	<path fill="#FFFFFF" d="M22,11.3c0-1.8,0.4-3.2,1.2-4.1c0.8-1,1.9-1.5,3.4-1.5c0.8,0,1.4,0.1,2,0.4c0.6,0.3,1.1,0.6,1.4,1.1
		s0.7,1.1,0.8,1.8c0.2,0.7,0.3,1.5,0.3,2.3c0,1.8-0.4,3.2-1.2,4.1c-0.8,1-1.9,1.5-3.4,1.5c-0.8,0-1.5-0.1-2-0.4
		c-0.6-0.3-1-0.6-1.4-1.1c-0.4-0.5-0.7-1.1-0.8-1.8S22,12.2,22,11.3z M24.3,11.3c0,0.5,0,1,0.1,1.5c0.1,0.5,0.2,0.8,0.4,1.2
		c0.2,0.3,0.4,0.6,0.7,0.8c0.3,0.2,0.7,0.3,1.1,0.3c0.7,0,1.3-0.3,1.7-0.9c0.4-0.6,0.6-1.5,0.6-2.8c0-0.5,0-1-0.1-1.5
		c-0.1-0.5-0.2-0.8-0.4-1.2S28,8.1,27.7,7.9c-0.3-0.2-0.7-0.3-1.1-0.3c-0.7,0-1.3,0.3-1.7,0.9C24.5,9.1,24.3,10.1,24.3,11.3z"/>
</g>
<g>
</g>
<g>
</g>
<g>
</g>
<g>
</g>
<g>
</g>
<g>
</g>
</svg>
