<?xml version="1.0" encoding="utf-8"?>
<!-- Generator: Adobe Illustrator 18.1.1, SVG Export Plug-In . SVG Version: 6.00 Build 0)  -->
<!DOCTYPE svg PUBLIC "-//W3C//DTD SVG 1.1//EN" "http://www.w3.org/Graphics/SVG/1.1/DTD/svg11.dtd">
<svg version="1.1" id="Vrstva_1" xmlns="http://www.w3.org/2000/svg" xmlns:xlink="http://www.w3.org/1999/xlink" x="0px" y="0px"
	 viewBox="0 0 32.3 21" enable-background="new 0 0 32.3 21" xml:space="preserve">
<g>
	<path fill="#FFFFFF" d="M14.1,5.6c0,0.9-0.2,1.9-0.5,2.9c-0.3,1-0.8,1.9-1.3,2.9c-0.5,0.9-1.1,1.8-1.8,2.7s-1.3,1.7-1.9,2.4
		l-1.5,1.1v0.1l2-0.4h5.4v3.1H2.8v-1.9c0.4-0.5,1-1,1.5-1.6c0.6-0.6,1.1-1.3,1.7-2c0.6-0.7,1.1-1.4,1.7-2.2c0.5-0.7,1-1.5,1.5-2.2
		c0.4-0.8,0.8-1.5,1-2.2c0.3-0.7,0.4-1.4,0.4-2c0-0.8-0.2-1.4-0.7-1.9C9.4,3.9,8.7,3.6,7.7,3.6C7.1,3.6,6.5,3.7,5.9,4S4.8,4.6,4.3,5
		L2.9,2.4c0.7-0.6,1.6-1.1,2.5-1.4s2-0.5,3.3-0.5c0.8,0,1.5,0.1,2.2,0.3c0.7,0.2,1.2,0.5,1.7,1c0.5,0.4,0.9,1,1.1,1.6
		S14.1,4.7,14.1,5.6z"/>
	<path fill="#FFFFFF" d="M16.8,10.5c0-3.4,0.6-6,1.8-7.6c1.2-1.7,2.9-2.5,5.1-2.5c2.3,0,4.1,0.8,5.2,2.5c1.1,1.6,1.6,4.2,1.6,7.7
		c0,3.4-0.6,6-1.8,7.7c-1.2,1.7-2.9,2.5-5.1,2.5c-2.3,0-4-0.9-5.1-2.6C17.3,16.3,16.8,13.8,16.8,10.5z M20.4,10.5
		c0,2.3,0.2,4,0.7,5.3c0.5,1.2,1.3,1.9,2.4,1.9c1.1,0,1.9-0.6,2.4-1.7c0.5-1.1,0.8-2.9,0.8-5.4c0-2.3-0.2-4-0.7-5.2
		c-0.5-1.2-1.3-1.8-2.5-1.8c-1.1,0-1.9,0.6-2.4,1.7C20.7,6.4,20.4,8.1,20.4,10.5z"/>
</g>
<g>
</g>
<g>
</g>
<g>
</g>
<g>
</g>
<g>
</g>
<g>
</g>
</svg>
