<?xml version="1.0" encoding="utf-8"?>
<!-- Generator: Adobe Illustrator 18.1.1, SVG Export Plug-In . SVG Version: 6.00 Build 0)  -->
<!DOCTYPE svg PUBLIC "-//W3C//DTD SVG 1.1//EN" "http://www.w3.org/Graphics/SVG/1.1/DTD/svg11.dtd">
<svg version="1.1" id="Vrstva_1" xmlns="http://www.w3.org/2000/svg" xmlns:xlink="http://www.w3.org/1999/xlink" x="0px" y="0px"
	 viewBox="0 0 32.3 21" enable-background="new 0 0 32.3 21" xml:space="preserve">
<g>
	<path fill="#FFFFFF" d="M9.5,11.1L9.7,9H9.6L9,10.7l-2.3,4H6l-2.4-4L2.9,9H2.8l0.3,2.1v5.6h-2V6H3l2.9,4.9l0.5,1.2h0.1L7,10.9
		L9.7,6h1.9v10.8H9.5V11.1z"/>
	<path fill="#FFFFFF" d="M19.3,14.3H16l-0.8,2.4h-2.1L17,5.9h1.6l3.9,10.9h-2.2L19.3,14.3z M16.6,12.7h2.3l-0.8-2.4l-0.3-1.7h-0.1
		l-0.3,1.7L16.6,12.7z"/>
	<path fill="#FFFFFF" d="M23.9,6.1C24.1,6,24.4,6,24.7,6c0.3,0,0.5-0.1,0.8-0.1c0.3,0,0.5,0,0.8,0c0.3,0,0.5,0,0.7,0
		c0.5,0,1,0,1.5,0.1s0.9,0.3,1.3,0.5c0.4,0.2,0.7,0.5,0.9,0.9C30.9,7.7,31,8.2,31,8.8c0,0.9-0.2,1.6-0.6,2.2c-0.4,0.6-1,0.9-1.6,1.2
		l0.8,0.5l2.5,4.1h-2.4l-2.4-4.2L26,12.3v4.4h-2.1V6.1z M27.1,7.7c-0.2,0-0.4,0-0.6,0c-0.2,0-0.4,0-0.5,0.1v3.1h0.9
		c0.6,0,1.1-0.1,1.4-0.4c0.3-0.3,0.5-0.7,0.5-1.3c0-0.5-0.1-0.8-0.4-1.1C28.1,7.8,27.7,7.7,27.1,7.7z"/>
</g>
<g>
</g>
<g>
</g>
<g>
</g>
<g>
</g>
<g>
</g>
<g>
</g>
</svg>
