<?xml version="1.0" encoding="utf-8"?>
<!-- Generator: Adobe Illustrator 18.1.1, SVG Export Plug-In . SVG Version: 6.00 Build 0)  -->
<!DOCTYPE svg PUBLIC "-//W3C//DTD SVG 1.1//EN" "http://www.w3.org/Graphics/SVG/1.1/DTD/svg11.dtd">
<svg version="1.1" id="Vrstva_1" xmlns="http://www.w3.org/2000/svg" xmlns:xlink="http://www.w3.org/1999/xlink" x="0px" y="0px"
	 viewBox="0 0 32.3 21" enable-background="new 0 0 32.3 21" xml:space="preserve">
<g>
	<path fill="#FFFFFF" d="M5.3,6h2.1v7.9c0,0.4,0,0.8-0.1,1.2c-0.1,0.4-0.2,0.7-0.5,1c-0.2,0.3-0.5,0.5-0.8,0.7
		c-0.3,0.2-0.7,0.3-1.2,0.3c-0.3,0-0.6,0-1-0.1c-0.3-0.1-0.7-0.1-0.9-0.3l0.5-1.7C3.6,15,3.9,15,4.3,15c0.4,0,0.7-0.2,0.8-0.5
		c0.1-0.3,0.2-0.7,0.2-1.3V6z"/>
	<path fill="#FFFFFF" d="M15.6,6h2v7c0,0.7-0.1,1.3-0.3,1.8c-0.2,0.5-0.4,0.9-0.8,1.2c-0.3,0.3-0.7,0.6-1.2,0.7
		c-0.5,0.2-1,0.2-1.6,0.2c-2.7,0-4.1-1.2-4.1-3.7V6h2.1v6.8c0,0.4,0,0.8,0.1,1.1c0.1,0.3,0.2,0.5,0.4,0.7c0.2,0.2,0.4,0.3,0.6,0.4
		c0.2,0.1,0.5,0.1,0.9,0.1c0.6,0,1.1-0.2,1.4-0.5c0.3-0.4,0.4-0.9,0.4-1.7V6z"/>
	<path fill="#FFFFFF" d="M22.7,11.1l-0.8-1.7h-0.1l0.2,1.7v5.6h-2V5.9h1.5l4.1,5.7l0.8,1.6h0.1l-0.2-1.6V6h2v10.9h-1.5L22.7,11.1z"
		/>
</g>
<g>
</g>
<g>
</g>
<g>
</g>
<g>
</g>
<g>
</g>
<g>
</g>
</svg>
