<?xml version="1.0" encoding="utf-8"?>
<!-- Generator: Adobe Illustrator 18.1.1, SVG Export Plug-In . SVG Version: 6.00 Build 0)  -->
<!DOCTYPE svg PUBLIC "-//W3C//DTD SVG 1.1//EN" "http://www.w3.org/Graphics/SVG/1.1/DTD/svg11.dtd">
<svg version="1.1" id="Vrstva_1" xmlns="http://www.w3.org/2000/svg" xmlns:xlink="http://www.w3.org/1999/xlink" x="0px" y="0px"
	 viewBox="0 0 32.3 21" enable-background="new 0 0 32.3 21" xml:space="preserve">
<g>
	<path fill="#FFFFFF" d="M8.8,13.8c0-0.3-0.1-0.6-0.4-0.8c-0.2-0.2-0.5-0.4-0.9-0.6c-0.4-0.2-0.8-0.3-1.2-0.5
		c-0.4-0.2-0.8-0.4-1.2-0.7s-0.7-0.6-0.9-1C4,9.9,3.9,9.4,3.9,8.8c0-0.5,0.1-1,0.3-1.4c0.2-0.4,0.4-0.7,0.7-1C5.2,6.2,5.6,6.1,6,5.9
		C6.5,5.8,7,5.7,7.5,5.7c0.6,0,1.2,0.1,1.8,0.2s1,0.3,1.4,0.5L10,8.1C9.8,8,9.4,7.9,9,7.8C8.5,7.6,8.1,7.6,7.5,7.6
		C7,7.6,6.7,7.7,6.4,7.9C6.1,8.1,6,8.3,6,8.7C6,9,6.1,9.2,6.4,9.4C6.6,9.6,6.9,9.8,7.3,10c0.4,0.2,0.8,0.4,1.2,0.5
		c0.4,0.2,0.8,0.4,1.2,0.7c0.4,0.3,0.7,0.6,0.9,1c0.2,0.4,0.4,0.9,0.4,1.4c0,0.6-0.1,1.1-0.3,1.5c-0.2,0.4-0.5,0.8-0.8,1
		c-0.3,0.3-0.8,0.5-1.2,0.6C8.1,16.9,7.6,17,7,17c-0.8,0-1.4-0.1-2-0.2s-1-0.3-1.3-0.4l0.7-1.8c0.1,0.1,0.3,0.1,0.4,0.2
		c0.2,0.1,0.4,0.1,0.6,0.2C5.6,15,5.8,15,6.1,15.1s0.5,0.1,0.8,0.1c0.6,0,1.1-0.1,1.4-0.3C8.6,14.6,8.8,14.3,8.8,13.8z"/>
	<path fill="#FFFFFF" d="M12.8,6h6.4v1.9h-4.3v2.5h3.9v1.9h-3.9v2.6h4.4v1.9h-6.5V6z"/>
	<path fill="#FFFFFF" d="M21.3,6.1c0.4-0.1,0.9-0.1,1.4-0.2s1-0.1,1.5-0.1c0.5,0,1.1,0,1.6,0.1c0.5,0.1,1,0.3,1.5,0.5
		s0.8,0.6,1.1,1.1c0.3,0.5,0.4,1.1,0.4,1.8c0,0.7-0.1,1.3-0.4,1.7c-0.2,0.5-0.5,0.8-0.9,1.1c-0.4,0.3-0.8,0.5-1.3,0.6
		c-0.5,0.1-1,0.2-1.5,0.2c-0.1,0-0.1,0-0.2,0s-0.2,0-0.4,0c-0.1,0-0.2,0-0.4,0c-0.1,0-0.2,0-0.3,0v3.7h-2.1V6.1z M24.5,7.6
		c-0.2,0-0.4,0-0.6,0c-0.2,0-0.3,0-0.4,0.1v3.5c0,0,0.1,0,0.2,0s0.2,0,0.3,0c0.1,0,0.2,0,0.3,0c0.1,0,0.2,0,0.2,0
		c0.3,0,0.6,0,0.8-0.1c0.3-0.1,0.5-0.1,0.7-0.3c0.2-0.1,0.4-0.3,0.5-0.6c0.1-0.2,0.2-0.6,0.2-1c0-0.3-0.1-0.6-0.2-0.8
		S26.1,8.1,25.9,8s-0.4-0.2-0.7-0.3C25,7.6,24.7,7.6,24.5,7.6z"/>
</g>
<g>
</g>
<g>
</g>
<g>
</g>
<g>
</g>
<g>
</g>
<g>
</g>
</svg>
