<?xml version="1.0" encoding="utf-8"?>
<!-- Generator: Adobe Illustrator 18.1.1, SVG Export Plug-In . SVG Version: 6.00 Build 0)  -->
<!DOCTYPE svg PUBLIC "-//W3C//DTD SVG 1.1//EN" "http://www.w3.org/Graphics/SVG/1.1/DTD/svg11.dtd">
<svg version="1.1" id="Layer_1" xmlns="http://www.w3.org/2000/svg" xmlns:xlink="http://www.w3.org/1999/xlink" x="0px" y="0px"
	 viewBox="-41 164.9 512 512" enable-background="new -41 164.9 512 512" xml:space="preserve">
<g>
	<path fill="#FFFFFF" d="M316.6,578.3V454.5c0,0-3.7-33.1-35.7-33.1c-32,0-37.9,31.5-37.9,31.5v125.4h-66l1.1-204.5H242l-0.5,25.7
		c0,0,13.3-33.6,63.5-33.6c50.1,0,72.9,28.8,77.1,82.7c0,53.9,0,129.7,0,129.7H316.6z M96.1,344.8c-22.7,0-41.1-16.2-41.1-36.3
		s18.4-36.3,41.1-36.3s41.1,16.3,41.1,36.3S118.8,344.8,96.1,344.8z M136.8,578.6H55.7V374.3l81.1-0.5V578.6z"/>
</g>
</svg>
