<?xml version="1.0" encoding="utf-8"?>
<!-- Generator: Adobe Illustrator 18.1.1, SVG Export Plug-In . SVG Version: 6.00 Build 0)  -->
<!DOCTYPE svg PUBLIC "-//W3C//DTD SVG 1.1//EN" "http://www.w3.org/Graphics/SVG/1.1/DTD/svg11.dtd">
<svg version="1.1" id="Layer_1" xmlns="http://www.w3.org/2000/svg" xmlns:xlink="http://www.w3.org/1999/xlink" x="0px" y="0px"
	 viewBox="-269 392.2 56.7 56.7" enable-background="new -269 392.2 56.7 56.7" xml:space="preserve">
<g>
	<path fill="#FFFFFF" d="M-225.1,420.4h-31.1c-4.9,0-9,4-9,9v7.2c0,4.9,4,9,9,9h31.1c4.9,0,9-4,9-9v-7.2
		C-216.1,424.4-220.1,420.4-225.1,420.4z M-249.7,426h-2.9v14.4h-2.8V426h-2.9v-2.4h8.6C-249.7,423.6-249.7,426-249.7,426z
		 M-241.5,440.4h-2.5V439c-0.5,0.5-0.9,0.9-1.4,1.1c-0.5,0.3-1,0.4-1.4,0.4c-0.6,0-1-0.2-1.3-0.6c-0.3-0.4-0.4-0.9-0.4-1.7V428h2.5
		v9.5c0,0.3,0.1,0.5,0.2,0.6c0.1,0.1,0.3,0.2,0.5,0.2c0.2,0,0.4-0.1,0.7-0.3c0.3-0.2,0.5-0.4,0.8-0.7V428h2.5V440.4z M-232.5,437.8
		c0,0.9-0.2,1.6-0.6,2c-0.4,0.5-1,0.7-1.7,0.7c-0.5,0-0.9-0.1-1.3-0.3c-0.4-0.2-0.7-0.5-1.1-0.8v1h-2.5v-16.8h2.5v5.4
		c0.3-0.4,0.7-0.7,1.1-0.9c0.4-0.2,0.8-0.3,1.1-0.3c0.8,0,1.4,0.3,1.8,0.8c0.4,0.5,0.6,1.3,0.6,2.3L-232.5,437.8L-232.5,437.8z
		 M-223.9,434.5h-4.7v2.3c0,0.7,0.1,1.1,0.2,1.4c0.2,0.3,0.4,0.4,0.8,0.4c0.4,0,0.7-0.1,0.9-0.3c0.2-0.2,0.2-0.7,0.2-1.4v-0.6h2.6
		v0.6c0,1.3-0.3,2.2-0.9,2.9c-0.6,0.6-1.5,1-2.8,1c-1.1,0-2-0.3-2.6-1c-0.6-0.7-1-1.6-1-2.8v-5.6c0-1.1,0.4-2,1.1-2.6
		c0.7-0.7,1.6-1,2.7-1c1.1,0,2,0.3,2.6,0.9c0.6,0.6,0.9,1.5,0.9,2.7V434.5z"/>
	<path fill="#FFFFFF" d="M-227.5,429.8c-0.4,0-0.7,0.1-0.9,0.3c-0.2,0.2-0.3,0.6-0.3,1.1v1.3h2.2v-1.3c0-0.5-0.1-0.9-0.3-1.1
		C-226.9,430-227.2,429.8-227.5,429.8z"/>
	<path fill="#FFFFFF" d="M-236.1,429.8c-0.2,0-0.4,0-0.5,0.1c-0.2,0.1-0.3,0.2-0.5,0.4v7.7c0.2,0.2,0.4,0.4,0.6,0.4
		c0.2,0.1,0.4,0.1,0.6,0.1c0.3,0,0.5-0.1,0.7-0.3c0.1-0.2,0.2-0.5,0.2-0.9v-6.4c0-0.4-0.1-0.7-0.3-1
		C-235.5,429.9-235.8,429.8-236.1,429.8z"/>
	<polygon fill="#FFFFFF" points="-252.1,416.1 -249,416.1 -249,408.4 -245.3,397.6 -248.5,397.6 -250.5,405 -250.7,405 
		-252.7,397.6 -255.9,397.6 -252.1,408.8 	"/>
	<path fill="#FFFFFF" d="M-241.1,416.4c1.3,0,2.3-0.3,3-1c0.7-0.7,1.1-1.6,1.1-2.8v-7.1c0-1-0.4-1.9-1.1-2.6c-0.7-0.7-1.7-1-2.8-1
		c-1.3,0-2.3,0.3-3,0.9c-0.8,0.6-1.1,1.5-1.1,2.5v7.1c0,1.2,0.4,2.1,1.1,2.8C-243.3,416.1-242.3,416.4-241.1,416.4z M-242.2,405.4
		c0-0.3,0.1-0.5,0.3-0.7c0.2-0.2,0.5-0.3,0.8-0.3c0.4,0,0.7,0.1,0.9,0.3c0.2,0.2,0.3,0.4,0.3,0.7v7.5c0,0.4-0.1,0.7-0.3,0.9
		c-0.2,0.2-0.5,0.3-0.9,0.3c-0.4,0-0.7-0.1-0.9-0.3c-0.2-0.2-0.3-0.5-0.3-0.9L-242.2,405.4L-242.2,405.4z"/>
	<path fill="#FFFFFF" d="M-232.8,416.3c0.5,0,1.1-0.1,1.6-0.4c0.6-0.3,1.1-0.7,1.6-1.3v1.5h2.8v-13.7h-2.8v10.4
		c-0.3,0.3-0.5,0.5-0.9,0.7c-0.3,0.2-0.6,0.3-0.8,0.3c-0.3,0-0.5-0.1-0.6-0.2c-0.1-0.1-0.2-0.4-0.2-0.7v-10.5h-2.8v11.4
		c0,0.8,0.2,1.4,0.5,1.8C-233.9,416.1-233.4,416.3-232.8,416.3z"/>
</g>
</svg>
