<?xml version="1.0" encoding="utf-8"?>
<!-- Generator: Adobe Illustrator 18.1.1, SVG Export Plug-In . SVG Version: 6.00 Build 0)  -->
<!DOCTYPE svg PUBLIC "-//W3C//DTD SVG 1.1//EN" "http://www.w3.org/Graphics/SVG/1.1/DTD/svg11.dtd">
<svg version="1.1" id="Vrstva_1" xmlns="http://www.w3.org/2000/svg" xmlns:xlink="http://www.w3.org/1999/xlink" x="0px" y="0px"
	 viewBox="0 0 32.3 21" enable-background="new 0 0 32.3 21" xml:space="preserve">
<g>
	<path fill="#FFFFFF" d="M3.7,17.3h3.9v-11L8,4.3L6.7,6L4.2,7.7L2.7,5.6L9,0.5h2v16.8h3.8v3.1H3.7V17.3z"/>
	<path fill="#FFFFFF" d="M16.7,10.5c0-3.4,0.6-6,1.8-7.6c1.2-1.7,2.9-2.5,5.1-2.5c2.3,0,4.1,0.8,5.2,2.5s1.6,4.2,1.6,7.7
		c0,3.4-0.6,6-1.8,7.7c-1.2,1.7-2.9,2.5-5.1,2.5c-2.3,0-4-0.9-5.1-2.6C17.3,16.3,16.7,13.8,16.7,10.5z M20.4,10.5
		c0,2.3,0.2,4,0.7,5.3c0.5,1.2,1.3,1.9,2.4,1.9c1.1,0,1.9-0.6,2.4-1.7c0.5-1.1,0.8-2.9,0.8-5.4c0-2.3-0.2-4-0.7-5.2
		c-0.5-1.2-1.3-1.8-2.5-1.8c-1.1,0-1.9,0.6-2.4,1.7C20.6,6.4,20.4,8.1,20.4,10.5z"/>
</g>
<g>
</g>
<g>
</g>
<g>
</g>
<g>
</g>
<g>
</g>
<g>
</g>
</svg>
