<?xml version="1.0" encoding="utf-8"?>
<!-- Generator: Adobe Illustrator 18.1.1, SVG Export Plug-In . SVG Version: 6.00 Build 0)  -->
<!DOCTYPE svg PUBLIC "-//W3C//DTD SVG 1.1//EN" "http://www.w3.org/Graphics/SVG/1.1/DTD/svg11.dtd">
<svg version="1.1" id="Vrstva_1" xmlns="http://www.w3.org/2000/svg" xmlns:xlink="http://www.w3.org/1999/xlink" x="0px" y="0px"
	 viewBox="0 0 32.3 21" enable-background="new 0 0 32.3 21" xml:space="preserve">
<g>
	<path fill="#FFFFFF" d="M13.4,16.7H6.6V6h2.1v8.9h4.7V16.7z"/>
	<path fill="#FFFFFF" d="M15.1,6h2.1v10.8h-2.1V6z"/>
	<path fill="#FFFFFF" d="M24.2,13.8c0-0.3-0.1-0.6-0.4-0.8c-0.2-0.2-0.5-0.4-0.9-0.6s-0.8-0.3-1.2-0.5c-0.4-0.2-0.8-0.4-1.2-0.7
		c-0.4-0.3-0.7-0.6-0.9-1s-0.4-0.9-0.4-1.5c0-0.5,0.1-1,0.3-1.4c0.2-0.4,0.4-0.7,0.7-1c0.3-0.3,0.7-0.4,1.1-0.6
		c0.4-0.1,0.9-0.2,1.5-0.2c0.6,0,1.2,0.1,1.8,0.2c0.6,0.1,1,0.3,1.4,0.5l-0.7,1.8c-0.2-0.1-0.6-0.3-1-0.4c-0.5-0.1-0.9-0.2-1.5-0.2
		c-0.5,0-0.9,0.1-1.1,0.3c-0.3,0.2-0.4,0.5-0.4,0.8c0,0.3,0.1,0.6,0.4,0.8c0.2,0.2,0.5,0.4,0.9,0.6c0.4,0.2,0.8,0.4,1.2,0.5
		s0.8,0.4,1.2,0.7s0.7,0.6,0.9,1c0.2,0.4,0.4,0.9,0.4,1.4c0,0.6-0.1,1.1-0.3,1.5c-0.2,0.4-0.5,0.8-0.8,1s-0.8,0.5-1.2,0.6
		c-0.5,0.1-1,0.2-1.6,0.2c-0.8,0-1.4-0.1-2-0.2s-1-0.3-1.3-0.4l0.7-1.8c0.1,0.1,0.3,0.1,0.4,0.2c0.2,0.1,0.4,0.1,0.6,0.2
		s0.5,0.1,0.7,0.2c0.3,0,0.5,0.1,0.8,0.1c0.6,0,1.1-0.1,1.4-0.3C24,14.6,24.2,14.3,24.2,13.8z"/>
</g>
<g>
</g>
<g>
</g>
<g>
</g>
<g>
</g>
<g>
</g>
<g>
</g>
</svg>
