<?xml version="1.0" encoding="utf-8"?>
<!-- Generator: Adobe Illustrator 18.1.1, SVG Export Plug-In . SVG Version: 6.00 Build 0)  -->
<!DOCTYPE svg PUBLIC "-//W3C//DTD SVG 1.1//EN" "http://www.w3.org/Graphics/SVG/1.1/DTD/svg11.dtd">
<svg version="1.1" id="Vrstva_1" xmlns="http://www.w3.org/2000/svg" xmlns:xlink="http://www.w3.org/1999/xlink" x="0px" y="0px"
	 viewBox="0 0 32.3 21" enable-background="new 0 0 32.3 21" xml:space="preserve">
<g>
	<path fill="#FFFFFF" d="M4.6,11.1L3.8,9.4H3.7L4,11.1v5.6H2V5.9h1.5l4.1,5.7l0.8,1.6h0.1l-0.2-1.6V6h2v10.9H8.7L4.6,11.1z"/>
	<path fill="#FFFFFF" d="M12.2,11.3c0-1.8,0.4-3.2,1.2-4.1c0.8-1,1.9-1.5,3.4-1.5c0.8,0,1.4,0.1,2,0.4s1.1,0.6,1.4,1.1
		c0.4,0.5,0.7,1.1,0.8,1.8c0.2,0.7,0.3,1.5,0.3,2.3c0,1.8-0.4,3.2-1.2,4.1c-0.8,1-1.9,1.5-3.4,1.5c-0.8,0-1.5-0.1-2-0.4
		c-0.6-0.3-1-0.6-1.4-1.1c-0.4-0.5-0.7-1.1-0.8-1.8C12.3,13,12.2,12.2,12.2,11.3z M14.4,11.3c0,0.5,0,1,0.1,1.5
		c0.1,0.5,0.2,0.8,0.4,1.2c0.2,0.3,0.4,0.6,0.7,0.8c0.3,0.2,0.7,0.3,1.1,0.3c0.7,0,1.3-0.3,1.7-0.9s0.6-1.5,0.6-2.8
		c0-0.5,0-1-0.1-1.5c-0.1-0.5-0.2-0.8-0.4-1.2c-0.2-0.3-0.4-0.6-0.7-0.8s-0.7-0.3-1.1-0.3c-0.7,0-1.3,0.3-1.7,0.9
		C14.6,9.1,14.4,10.1,14.4,11.3z"/>
	<path fill="#FFFFFF" d="M26.6,12.3l0.3,1.8H27l0.3-1.8L29.3,6h2.2l-4,10.9H26L22,6h2.4L26.6,12.3z"/>
</g>
<g>
</g>
<g>
</g>
<g>
</g>
<g>
</g>
<g>
</g>
<g>
</g>
</svg>
