<?xml version="1.0" encoding="utf-8"?>
<!-- Generator: Adobe Illustrator 18.1.1, SVG Export Plug-In . SVG Version: 6.00 Build 0)  -->
<!DOCTYPE svg PUBLIC "-//W3C//DTD SVG 1.1//EN" "http://www.w3.org/Graphics/SVG/1.1/DTD/svg11.dtd">
<svg version="1.1" id="Vrstva_1" xmlns="http://www.w3.org/2000/svg" xmlns:xlink="http://www.w3.org/1999/xlink" x="0px" y="0px"
	 viewBox="0 0 32.3 21" enable-background="new 0 0 32.3 21" xml:space="preserve">
<g>
	<path fill="#FFFFFF" d="M4.2,6h6.4v1.9H6.4v2.7h3.9v1.9H6.4v4.4H4.2V6z"/>
	<path fill="#FFFFFF" d="M12.4,6h6.4v1.9h-4.3v2.5h3.9v1.9h-3.9v2.6h4.4v1.9h-6.5V6z"/>
	<path fill="#FFFFFF" d="M28.2,8.5c0,0.3,0,0.5-0.1,0.8C28,9.5,27.9,9.8,27.8,10c-0.2,0.2-0.4,0.4-0.6,0.6c-0.2,0.2-0.5,0.3-0.9,0.4
		v0.1c0.3,0.1,0.6,0.1,0.9,0.3c0.3,0.1,0.5,0.3,0.7,0.5c0.2,0.2,0.4,0.5,0.5,0.8c0.1,0.3,0.2,0.7,0.2,1.1c0,0.6-0.1,1-0.4,1.4
		c-0.2,0.4-0.6,0.7-0.9,1c-0.4,0.3-0.8,0.4-1.3,0.6c-0.5,0.1-1,0.2-1.6,0.2c-0.2,0-0.4,0-0.7,0c-0.3,0-0.6,0-0.9,0
		c-0.3,0-0.6,0-1-0.1c-0.3,0-0.6-0.1-0.9-0.1V6c0.2,0,0.4-0.1,0.7-0.1c0.3,0,0.5-0.1,0.8-0.1c0.3,0,0.6,0,0.9,0s0.6,0,0.9,0
		c0.5,0,1,0,1.5,0.1c0.5,0.1,0.9,0.2,1.3,0.4c0.4,0.2,0.7,0.5,0.9,0.8C28.1,7.5,28.2,7.9,28.2,8.5z M23.7,10.5c0.1,0,0.3,0,0.5,0
		c0.2,0,0.3,0,0.5,0c0.4-0.1,0.7-0.3,1-0.5s0.4-0.6,0.4-1c0-0.3-0.1-0.5-0.2-0.7c-0.1-0.2-0.2-0.3-0.4-0.4c-0.2-0.1-0.4-0.2-0.6-0.2
		c-0.2,0-0.4-0.1-0.7-0.1c-0.3,0-0.5,0-0.7,0c-0.2,0-0.4,0-0.5,0v2.8H23.7z M24.3,15.1c0.3,0,0.5,0,0.7-0.1c0.2-0.1,0.4-0.2,0.6-0.3
		s0.3-0.3,0.4-0.5c0.1-0.2,0.2-0.4,0.2-0.7c0-0.3-0.1-0.6-0.2-0.8c-0.1-0.2-0.3-0.3-0.5-0.4c-0.2-0.1-0.4-0.2-0.7-0.2
		c-0.3,0-0.5,0-0.8,0H23V15c0.1,0,0.1,0,0.2,0c0.1,0,0.2,0,0.4,0c0.1,0,0.3,0,0.4,0C24.1,15.1,24.2,15.1,24.3,15.1z"/>
</g>
<g>
</g>
<g>
</g>
<g>
</g>
<g>
</g>
<g>
</g>
<g>
</g>
</svg>
