<?xml version="1.0" encoding="utf-8"?>
<!-- Generator: Adobe Illustrator 18.1.1, SVG Export Plug-In . SVG Version: 6.00 Build 0)  -->
<!DOCTYPE svg PUBLIC "-//W3C//DTD SVG 1.1//EN" "http://www.w3.org/Graphics/SVG/1.1/DTD/svg11.dtd">
<svg version="1.1" id="Vrstva_1" xmlns="http://www.w3.org/2000/svg" xmlns:xlink="http://www.w3.org/1999/xlink" x="0px" y="0px"
	 viewBox="0 0 32.3 21" enable-background="new 0 0 32.3 21" xml:space="preserve">
<g>
	<path fill="#FFFFFF" d="M14.2,5.6c0,0.9-0.2,1.9-0.5,2.9c-0.3,1-0.8,1.9-1.3,2.9c-0.5,0.9-1.1,1.8-1.8,2.7s-1.3,1.7-1.9,2.4
		l-1.5,1.1v0.1l2-0.4h5.4v3.1H2.9v-1.9c0.4-0.5,1-1,1.5-1.6c0.6-0.6,1.1-1.3,1.7-2c0.6-0.7,1.1-1.4,1.7-2.2c0.5-0.7,1-1.5,1.5-2.2
		c0.4-0.8,0.8-1.5,1-2.2c0.3-0.7,0.4-1.4,0.4-2c0-0.8-0.2-1.4-0.7-1.9C9.5,3.9,8.8,3.6,7.8,3.6C7.2,3.6,6.6,3.7,6,4S4.9,4.6,4.4,5
		L3,2.4c0.7-0.6,1.6-1.1,2.5-1.4s2-0.5,3.3-0.5c0.8,0,1.5,0.1,2.2,0.3c0.7,0.2,1.2,0.5,1.7,1c0.5,0.4,0.9,1,1.1,1.6
		S14.2,4.7,14.2,5.6z"/>
	<path fill="#FFFFFF" d="M30.1,14.3c0,0.9-0.2,1.8-0.5,2.5c-0.3,0.8-0.7,1.5-1.3,2s-1.2,1-2,1.4c-0.8,0.3-1.7,0.5-2.6,0.5
		c-1,0-1.9-0.2-2.7-0.5c-0.8-0.3-1.5-0.8-2.1-1.4c-0.6-0.6-1.1-1.4-1.4-2.3s-0.5-2-0.5-3.2c0-1.8,0.3-3.5,0.8-5S19,5.6,20,4.4
		c0.9-1.1,2-2,3.2-2.7c1.2-0.7,2.5-1.1,3.8-1.4l0.8,2.9c-0.9,0.1-1.8,0.4-2.6,0.9c-0.8,0.4-1.5,0.9-2.1,1.5s-1.1,1.3-1.5,2
		c-0.4,0.7-0.7,1.5-0.9,2.3c0.4-0.5,0.9-0.9,1.5-1.2c0.6-0.3,1.3-0.5,2.2-0.5c0.8,0,1.6,0.1,2.3,0.4c0.7,0.3,1.3,0.6,1.8,1.2
		c0.5,0.5,0.9,1.1,1.2,1.9C29.9,12.5,30.1,13.3,30.1,14.3z M26.6,14.5c0-2.1-1-3.1-3.1-3.1c-0.7,0-1.4,0.2-1.9,0.5
		c-0.5,0.3-0.9,0.7-1.1,1.2c0,0.2-0.1,0.4-0.1,0.5s0,0.3,0,0.4c0,0.4,0.1,0.9,0.2,1.3s0.3,0.8,0.6,1.2c0.3,0.3,0.6,0.6,1,0.8
		c0.4,0.2,0.9,0.3,1.4,0.3c0.9,0,1.6-0.3,2.1-0.9C26.3,16.2,26.6,15.4,26.6,14.5z"/>
</g>
<g>
</g>
<g>
</g>
<g>
</g>
<g>
</g>
<g>
</g>
<g>
</g>
</svg>
