<?xml version="1.0" encoding="utf-8"?>
<!-- Generator: Adobe Illustrator 18.1.1, SVG Export Plug-In . SVG Version: 6.00 Build 0)  -->
<!DOCTYPE svg PUBLIC "-//W3C//DTD SVG 1.1//EN" "http://www.w3.org/Graphics/SVG/1.1/DTD/svg11.dtd">
<svg version="1.1" id="Vrstva_1" xmlns="http://www.w3.org/2000/svg" xmlns:xlink="http://www.w3.org/1999/xlink" x="0px" y="0px"
	 viewBox="0 0 32.3 21" enable-background="new 0 0 32.3 21" xml:space="preserve">
<g>
	<path fill="#FFFFFF" d="M10.8,8.5c0,0.3,0,0.5-0.1,0.8c-0.1,0.3-0.2,0.5-0.3,0.7c-0.2,0.2-0.4,0.4-0.6,0.6
		c-0.2,0.2-0.5,0.3-0.9,0.4v0.1c0.3,0.1,0.6,0.1,0.9,0.3c0.3,0.1,0.5,0.3,0.7,0.5c0.2,0.2,0.4,0.5,0.5,0.8c0.1,0.3,0.2,0.7,0.2,1.1
		c0,0.6-0.1,1-0.4,1.4c-0.2,0.4-0.6,0.7-0.9,1c-0.4,0.3-0.8,0.4-1.3,0.6c-0.5,0.1-1,0.2-1.6,0.2c-0.2,0-0.4,0-0.7,0s-0.6,0-0.9,0
		c-0.3,0-0.6,0-1-0.1c-0.3,0-0.6-0.1-0.9-0.1V6C3.7,6,3.9,6,4.2,5.9S4.7,5.9,5,5.9c0.3,0,0.6,0,0.9,0s0.6,0,0.9,0c0.5,0,1,0,1.5,0.1
		C8.7,6,9.1,6.1,9.5,6.3c0.4,0.2,0.7,0.5,0.9,0.8C10.6,7.5,10.8,7.9,10.8,8.5z M6.2,10.5c0.1,0,0.3,0,0.5,0c0.2,0,0.3,0,0.5,0
		c0.4-0.1,0.7-0.3,1-0.5c0.3-0.2,0.4-0.6,0.4-1c0-0.3-0.1-0.5-0.2-0.7C8.4,8.1,8.2,8,8.1,7.8C7.9,7.7,7.7,7.7,7.5,7.6
		c-0.2,0-0.4-0.1-0.7-0.1c-0.3,0-0.5,0-0.7,0c-0.2,0-0.4,0-0.5,0v2.8H6.2z M6.9,15.1c0.3,0,0.5,0,0.7-0.1c0.2-0.1,0.4-0.2,0.6-0.3
		s0.3-0.3,0.4-0.5c0.1-0.2,0.2-0.4,0.2-0.7c0-0.3-0.1-0.6-0.2-0.8c-0.1-0.2-0.3-0.3-0.5-0.4c-0.2-0.1-0.4-0.2-0.7-0.2
		c-0.3,0-0.5,0-0.8,0H5.6V15c0.1,0,0.1,0,0.2,0c0.1,0,0.2,0,0.4,0c0.1,0,0.3,0,0.4,0S6.8,15.1,6.9,15.1z"/>
	<path fill="#FFFFFF" d="M13,6.1C13.3,6,13.5,6,13.8,6c0.3,0,0.5-0.1,0.8-0.1c0.3,0,0.5,0,0.8,0c0.3,0,0.5,0,0.7,0
		c0.5,0,1,0,1.5,0.1c0.5,0.1,0.9,0.3,1.3,0.5c0.4,0.2,0.7,0.5,0.9,0.9c0.2,0.4,0.3,0.9,0.3,1.5c0,0.9-0.2,1.6-0.6,2.2
		c-0.4,0.6-1,0.9-1.6,1.2l0.8,0.5l2.5,4.1h-2.4l-2.4-4.2l-1.1-0.2v4.4H13V6.1z M16.8,5.4h-1.4l-2-1.4V3.3H15L15.8,4l0.3,0.5L16.4,4
		l0.9-0.7h1.5V4L16.8,5.4z M16.3,7.7c-0.2,0-0.4,0-0.6,0c-0.2,0-0.4,0-0.5,0.1v3.1H16c0.6,0,1.1-0.1,1.4-0.4
		c0.3-0.3,0.5-0.7,0.5-1.3c0-0.5-0.1-0.8-0.4-1.1S16.8,7.7,16.3,7.7z"/>
	<path fill="#FFFFFF" d="M22.8,6h6.4v1.9h-4.3v2.5h3.9v1.9h-3.9v2.6h4.4v1.9h-6.5V6z"/>
</g>
<g>
</g>
<g>
</g>
<g>
</g>
<g>
</g>
<g>
</g>
<g>
</g>
</svg>
