<?xml version="1.0" encoding="utf-8"?>
<!-- Generator: Adobe Illustrator 18.1.1, SVG Export Plug-In . SVG Version: 6.00 Build 0)  -->
<!DOCTYPE svg PUBLIC "-//W3C//DTD SVG 1.1//EN" "http://www.w3.org/Graphics/SVG/1.1/DTD/svg11.dtd">
<svg version="1.1" id="Vrstva_1" xmlns="http://www.w3.org/2000/svg" xmlns:xlink="http://www.w3.org/1999/xlink" x="0px" y="0px"
	 viewBox="0 0 32.3 21" enable-background="new 0 0 32.3 21" xml:space="preserve">
<g>
	<path fill="#FFFFFF" d="M15,17.7c1.2,0,2-0.3,2.6-0.9c0.6-0.6,0.9-1.4,0.9-2.2c0-1.1-0.3-1.8-0.9-2.3c-0.6-0.5-1.6-0.8-3-0.8h-2
		V9.5L16,4.9l1.6-1.3l-2.2,0.3h-4.7V0.8h10.7v2l-3.9,5.3l-1.2,0.8V9l1.2-0.2C18,8.8,18.6,9,19.2,9.2c0.6,0.2,1.1,0.6,1.5,1
		c0.4,0.5,0.8,1,1,1.7c0.3,0.7,0.4,1.4,0.4,2.3c0,1.1-0.2,2-0.5,2.8s-0.9,1.5-1.5,2s-1.4,0.9-2.2,1.2c-0.9,0.3-1.8,0.4-2.8,0.4
		c-0.8,0-1.7-0.1-2.5-0.2c-0.9-0.1-1.6-0.4-2.1-0.6l1-3c0.5,0.2,1,0.4,1.6,0.6C13.6,17.6,14.3,17.7,15,17.7z"/>
</g>
<g>
</g>
<g>
</g>
<g>
</g>
<g>
</g>
<g>
</g>
<g>
</g>
</svg>
