<?xml version="1.0" encoding="utf-8"?>
<!-- Generator: Adobe Illustrator 18.1.1, SVG Export Plug-In . SVG Version: 6.00 Build 0)  -->
<!DOCTYPE svg PUBLIC "-//W3C//DTD SVG 1.1//EN" "http://www.w3.org/Graphics/SVG/1.1/DTD/svg11.dtd">
<svg version="1.1" id="Vrstva_1" xmlns="http://www.w3.org/2000/svg" xmlns:xlink="http://www.w3.org/1999/xlink" x="0px" y="0px"
	 viewBox="0 0 32.3 21" enable-background="new 0 0 32.3 21" xml:space="preserve">
<g>
	<path fill="#FFFFFF" d="M7.9,17.7c1.2,0,2-0.3,2.6-0.9c0.6-0.6,0.9-1.4,0.9-2.2c0-1.1-0.3-1.8-1-2.3c-0.6-0.5-1.6-0.8-3-0.8h-2V9.5
		l3.4-4.6l1.6-1.3L8.3,3.9H3.6V0.8h10.7v2l-3.9,5.3L9.1,8.8V9l1.2-0.2c0.7,0.1,1.3,0.2,1.9,0.4c0.6,0.2,1.1,0.6,1.5,1
		c0.4,0.5,0.8,1,1,1.7c0.3,0.7,0.4,1.4,0.4,2.3c0,1.1-0.2,2-0.5,2.8c-0.4,0.8-0.9,1.5-1.5,2s-1.4,0.9-2.2,1.2
		C9.9,20.6,9,20.7,8,20.7c-0.8,0-1.7-0.1-2.5-0.2c-0.9-0.1-1.6-0.4-2.1-0.6l1-3c0.5,0.2,1,0.4,1.6,0.6C6.5,17.6,7.2,17.7,7.9,17.7z"
		/>
	<path fill="#FFFFFF" d="M18.1,17.3H22v-11l0.4-1.9L21.1,6l-2.5,1.7l-1.5-2.1l6.4-5.1h2v16.8h3.8v3.1H18.1V17.3z"/>
</g>
<g>
</g>
<g>
</g>
<g>
</g>
<g>
</g>
<g>
</g>
<g>
</g>
</svg>
