<?xml version="1.0" encoding="utf-8"?>
<!-- Generator: Adobe Illustrator 19.2.0, SVG Export Plug-In . SVG Version: 6.00 Build 0)  -->
<svg version="1.1" id="Vrstva_1" xmlns="http://www.w3.org/2000/svg" xmlns:xlink="http://www.w3.org/1999/xlink" x="0px" y="0px"
	 viewBox="0 0 32.3 21" enable-background="new 0 0 32.3 21" xml:space="preserve">
<g>
	<path fill="#FFFFFF" d="M5.7,12.1H5.1v4.6H3V6h2.1v4.8l0.5-0.2l3-4.6H11l-3.1,4.5L7,11.1l0.9,0.6l3.6,5.1H8.9L5.7,12.1z"/>
	<path fill="#FFFFFF" d="M16.9,12.3l0.3,1.8h0.1l0.3-1.8L19.6,6h2.2l-4,10.9h-1.5L12.3,6h2.4L16.9,12.3z"/>
	<path fill="#FFFFFF" d="M23.2,6h6.4v1.9h-4.3v2.5h3.9v1.9h-3.9v2.6h4.4v1.9h-6.5V6z M27.1,5.4h-1.4l-2-1.4V3.3h1.6L26.1,4l0.3,0.5
		L26.7,4l0.9-0.7h1.5V4L27.1,5.4z"/>
</g>
<g>
</g>
<g>
</g>
<g>
</g>
<g>
</g>
<g>
</g>
<g>
</g>
</svg>
