<?xml version="1.0" encoding="utf-8"?>
<!-- Generator: Adobe Illustrator 18.1.1, SVG Export Plug-In . SVG Version: 6.00 Build 0)  -->
<!DOCTYPE svg PUBLIC "-//W3C//DTD SVG 1.1//EN" "http://www.w3.org/Graphics/SVG/1.1/DTD/svg11.dtd">
<svg version="1.1" id="Vrstva_1" xmlns="http://www.w3.org/2000/svg" xmlns:xlink="http://www.w3.org/1999/xlink" x="0px" y="0px"
	 viewBox="0 0 32.3 21" enable-background="new 0 0 32.3 21" xml:space="preserve">
<g>
	<path fill="#FFFFFF" d="M10.7,16.3c-0.3,0.2-0.7,0.4-1.3,0.5C9,16.9,8.4,17,7.9,17c-0.6,0-1.3-0.1-1.8-0.3c-0.6-0.2-1.1-0.5-1.5-1
		s-0.8-1-1.1-1.7c-0.3-0.7-0.4-1.6-0.4-2.6c0-1.1,0.1-1.9,0.4-2.7S4.2,7.4,4.7,7c0.5-0.4,1-0.7,1.6-0.9c0.6-0.2,1.1-0.3,1.7-0.3
		c0.6,0,1.1,0,1.6,0.1c0.4,0.1,0.8,0.2,1.1,0.3l-0.4,1.8C9.9,7.8,9.6,7.7,9.3,7.7C9,7.6,8.6,7.6,8.1,7.6c-0.9,0-1.5,0.3-2.1,0.9
		c-0.5,0.6-0.8,1.5-0.8,2.8c0,0.6,0.1,1.1,0.2,1.5S5.8,13.7,6,14s0.6,0.6,0.9,0.8s0.8,0.3,1.3,0.3c0.5,0,0.9,0,1.2-0.1
		c0.3-0.1,0.6-0.2,0.8-0.4L10.7,16.3z M8.4,5.4H7L5,3.9V3.3h1.6L7.5,4l0.3,0.5L8.1,4l0.9-0.7h1.5V4L8.4,5.4z"/>
	<path fill="#FFFFFF" d="M16.4,12.3l0.3,1.8h0.1l0.3-1.8L19.1,6h2.2l-4,10.9h-1.5L11.8,6h2.4L16.4,12.3z"/>
	<path fill="#FFFFFF" d="M29.6,16.3c-0.3,0.2-0.7,0.4-1.3,0.5s-1,0.2-1.6,0.2c-0.6,0-1.3-0.1-1.8-0.3c-0.6-0.2-1.1-0.5-1.5-1
		s-0.8-1-1.1-1.7c-0.3-0.7-0.4-1.6-0.4-2.6c0-1.1,0.1-1.9,0.4-2.7C22.7,8,23,7.4,23.5,7s1-0.7,1.6-0.9c0.6-0.2,1.1-0.3,1.7-0.3
		c0.6,0,1.1,0,1.6,0.1c0.4,0.1,0.8,0.2,1.1,0.3L29,7.9c-0.2-0.1-0.5-0.2-0.8-0.2c-0.3-0.1-0.7-0.1-1.2-0.1c-0.9,0-1.5,0.3-2.1,0.9
		c-0.5,0.6-0.8,1.5-0.8,2.8c0,0.6,0.1,1.1,0.2,1.5c0.1,0.5,0.3,0.8,0.6,1.2c0.3,0.3,0.6,0.6,0.9,0.8c0.4,0.2,0.8,0.3,1.3,0.3
		c0.5,0,0.9,0,1.2-0.1c0.3-0.1,0.6-0.2,0.8-0.4L29.6,16.3z"/>
</g>
<g>
</g>
<g>
</g>
<g>
</g>
<g>
</g>
<g>
</g>
<g>
</g>
</svg>
