<?xml version="1.0" encoding="utf-8"?>
<!-- Generator: Adobe Illustrator 18.1.1, SVG Export Plug-In . SVG Version: 6.00 Build 0)  -->
<!DOCTYPE svg PUBLIC "-//W3C//DTD SVG 1.1//EN" "http://www.w3.org/Graphics/SVG/1.1/DTD/svg11.dtd">
<svg version="1.1" id="Vrstva_1" xmlns="http://www.w3.org/2000/svg" xmlns:xlink="http://www.w3.org/1999/xlink" x="0px" y="0px"
	 viewBox="0 0 32.3 21" enable-background="new 0 0 32.3 21" xml:space="preserve">
<g>
	<path fill="#FFFFFF" d="M2.5,14.9l4.6-6.4l0.8-0.6H2.5V6H10v1.9l-4.6,6.4l-0.8,0.6H10v1.9H2.5V14.9z"/>
	<path fill="#FFFFFF" d="M17.4,14.3h-3.3l-0.8,2.4h-2.1l3.9-10.9h1.6l3.9,10.9h-2.2L17.4,14.3z M16,3.3h2.4v0.5l-2.5,1.4h-1.6
		L16,3.3z M14.7,12.7H17l-0.8-2.4l-0.3-1.7h-0.1l-0.3,1.7L14.7,12.7z"/>
	<path fill="#FFFFFF" d="M22,6.1C22.2,6,22.5,6,22.8,6c0.3,0,0.5-0.1,0.8-0.1c0.3,0,0.5,0,0.8,0c0.3,0,0.5,0,0.7,0
		c0.5,0,1,0,1.5,0.1s0.9,0.3,1.3,0.5c0.4,0.2,0.7,0.5,0.9,0.9c0.2,0.4,0.3,0.9,0.3,1.5c0,0.9-0.2,1.6-0.6,2.2
		c-0.4,0.6-1,0.9-1.6,1.2l0.8,0.5l2.5,4.1h-2.4l-2.4-4.2l-1.1-0.2v4.4H22V6.1z M25.8,5.4h-1.4l-2-1.4V3.3H24L24.8,4l0.3,0.5L25.4,4
		l0.9-0.7h1.5V4L25.8,5.4z M25.2,7.7c-0.2,0-0.4,0-0.6,0c-0.2,0-0.4,0-0.5,0.1v3.1H25c0.6,0,1.1-0.1,1.4-0.4
		c0.3-0.3,0.5-0.7,0.5-1.3c0-0.5-0.1-0.8-0.4-1.1C26.2,7.8,25.8,7.7,25.2,7.7z"/>
</g>
<g>
</g>
<g>
</g>
<g>
</g>
<g>
</g>
<g>
</g>
<g>
</g>
</svg>
