<?xml version="1.0" encoding="utf-8"?>
<!-- Generator: Adobe Illustrator 19.1.0, SVG Export Plug-In . SVG Version: 6.00 Build 0)  -->
<svg version="1.1" id="Layer_1" xmlns="http://www.w3.org/2000/svg" xmlns:xlink="http://www.w3.org/1999/xlink" x="0px" y="0px"
	 viewBox="-49 141 512 512" style="enable-background:new -49 141 512 512;" xml:space="preserve">
<style type="text/css">
	.st0{fill:#FFFFFF;}
</style>
<g>
	<path class="st0" d="M175,576.8V217.1c0-6.7-5.4-12.1-12.2-12.1H91.2c-6.8,0-12.2,5.4-12.2,12.1v359.7c0,6.7,5.4,12.2,12.2,12.2
		h71.6C169.6,589,175,583.6,175,576.8z"/>
	<path class="st0" d="M322.8,205h-71.6c-6.7,0-12.2,5.4-12.2,12.1v359.7c0,6.7,5.4,12.2,12.2,12.2h71.6c6.7,0,12.2-5.4,12.2-12.2
		V217.1C335,210.4,329.6,205,322.8,205z"/>
</g>
</svg>
